<?xml version="1.0" encoding="iso-8859-1"?>
<!-- Generator: Adobe Illustrator 18.0.0, SVG Export Plug-In . SVG Version: 6.00 Build 0)  -->
<!DOCTYPE svg PUBLIC "-//W3C//DTD SVG 1.1//EN" "http://www.w3.org/Graphics/SVG/1.1/DTD/svg11.dtd">
<svg version="1.1" id="Capa_1" xmlns="http://www.w3.org/2000/svg" xmlns:xlink="http://www.w3.org/1999/xlink" x="0px" y="0px"
	 viewBox="0 0 322.537 322.537" style="enable-background:new 0 0 322.537 322.537;" xml:space="preserve">
<g>
	<path d="M138.257,133.695c-10.721,0-19.443,8.722-19.443,19.442c0,10.72,8.723,19.441,19.443,19.441
		c10.719,0,19.439-8.721,19.439-19.441C157.696,142.417,148.976,133.695,138.257,133.695z"/>
	<path d="M283.421,53.838c-0.034-0.002-0.069-0.004-0.103-0.005c-40.55-1.701-81.634-2.564-122.113-2.564
		c-40.479,0-81.52,0.863-121.982,2.564c-0.034,0.001-0.069,0.003-0.104,0.005C17.328,55.207,0.146,74.257,0,97.239v76.957
		c0.146,22.955,17.329,42.006,39.12,43.371c0.034,0.002,0.068,0.004,0.102,0.005c3.243,0.136,6.485,0.266,9.729,0.391v48.305
		c0,2.023,1.218,3.846,3.087,4.62c0.618,0.256,1.268,0.38,1.912,0.38c1.301,0,2.58-0.508,3.536-1.464l50.174-50.173
		c17.882,0.33,35.977,0.498,53.823,0.498h0.007c40.45,0,81.439-0.86,121.827-2.557c0.036-0.001,0.07-0.003,0.105-0.005
		c21.789-1.374,38.97-20.425,39.114-43.402v-76.96C322.392,74.258,305.21,55.209,283.421,53.838z M96.395,183.146
		c0,1.381-1.119,2.5-2.5,2.5h-7c-1.381,0-2.5-1.119-2.5-2.5v-51.114L55.903,85.576c-0.474-0.771-0.492-1.739-0.051-2.528
		c0.442-0.79,1.276-1.279,2.182-1.279h8.427c0.876,0,1.688,0.459,2.142,1.21l21.792,36.155l21.797-36.155
		c0.452-0.751,1.265-1.21,2.141-1.21h8.428c0.905,0,1.739,0.489,2.182,1.279c0.442,0.79,0.423,1.757-0.051,2.528l-28.496,46.457
		V183.146z M138.257,184.579c-17.338,0-31.443-14.105-31.443-31.441c0-17.337,14.105-31.442,31.443-31.442
		c17.336,0,31.439,14.105,31.439,31.442C169.696,170.474,155.593,184.579,138.257,184.579z M220.583,182.814
		c0,1.381-1.119,2.5-2.5,2.5h-7c-1.381,0-2.5-1.119-2.5-2.5v-0.278c-3.362,1.484-7.15,2.278-11.018,2.278
		c-12.694,0-23.021-8.341-23.021-18.594v-38.76c0-1.381,1.119-2.5,2.5-2.5h7c1.381,0,2.5,1.119,2.5,2.5v38.76
		c0,3.113,4.714,6.594,11.021,6.594c6.306,0,11.018-3.481,11.018-6.594v-38.76c0-1.381,1.119-2.5,2.5-2.5h7
		c1.381,0,2.5,1.119,2.5,2.5V182.814z M269.309,134.43c-0.011,0.677-0.294,1.32-0.787,1.784c-0.492,0.463-1.139,0.707-1.828,0.677
		c-0.399,0.002-11.059,0.075-17.496,6.44c-3.334,3.295-5.024,7.94-5.024,13.804v26.011c0,1.381-1.119,2.5-2.5,2.5h-7
		c-1.381,0-2.5-1.119-2.5-2.5v-56.017c0-1.381,1.119-2.5,2.5-2.5h7c1.381,0,2.5,1.119,2.5,2.5v4.775
		c9.133-6.637,20.227-7.011,22.589-7.011l0.182,0.001c0.664,0.008,1.298,0.28,1.761,0.756c0.464,0.476,0.719,1.117,0.709,1.781
		L269.309,134.43z"/>
</g>
<g>
</g>
<g>
</g>
<g>
</g>
<g>
</g>
<g>
</g>
<g>
</g>
<g>
</g>
<g>
</g>
<g>
</g>
<g>
</g>
<g>
</g>
<g>
</g>
<g>
</g>
<g>
</g>
<g>
</g>
</svg>
