<?xml version="1.0" encoding="iso-8859-1"?>
<!-- Generator: Adobe Illustrator 19.0.0, SVG Export Plug-In . SVG Version: 6.00 Build 0)  -->
<svg version="1.1" id="Capa_1" xmlns="http://www.w3.org/2000/svg" xmlns:xlink="http://www.w3.org/1999/xlink" x="0px" y="0px"
	 viewBox="0 0 512 512" style="enable-background:new 0 0 512 512;" xml:space="preserve">
<circle style="fill:#E7ECED;" cx="281.6" cy="298.667" r="204.8"/>
<polygon style="fill:#28384C;" points="230.4,8.533 230.4,51.2 264.533,51.2 264.533,94.626 298.667,94.626 298.667,51.2 
	332.8,51.2 332.8,8.533 "/>
<circle style="fill:#DD352E;" cx="281.344" cy="298.667" r="34.133"/>
<g>
	<path style="fill:#4D007E;" d="M281.6,512c-60.612,0-118.579-25.924-159.019-71.125c-3.14-3.516-2.842-8.909,0.666-12.049
		c3.507-3.14,8.9-2.85,12.049,0.666c37.214,41.591,90.539,65.442,146.304,65.442c108.22,0,196.267-88.038,196.267-196.267
		c0-101.316-79.019-187.204-179.9-195.524c-4.429-0.367-7.834-4.07-7.834-8.508V51.2c0-4.719,3.823-8.533,8.533-8.533h25.6v-25.6
		h-85.333v25.6h25.6c4.71,0,8.533,3.814,8.533,8.533v43.435c0,4.446-3.405,8.141-7.834,8.508
		c-45.961,3.789-89.344,23.859-122.138,56.508c-3.337,3.337-8.738,3.302-12.066-0.034c-3.328-3.337-3.311-8.738,0.026-12.066
		C164.83,113.929,208.947,92.578,256,86.929V59.733h-25.6c-4.71,0-8.533-3.814-8.533-8.533V8.533C221.867,3.814,225.69,0,230.4,0
		h102.4c4.71,0,8.533,3.814,8.533,8.533V51.2c0,4.719-3.823,8.533-8.533,8.533h-25.6v27.196
		c105.89,12.732,187.733,104.243,187.733,211.738C494.933,416.299,399.232,512,281.6,512z"/>
	<path style="fill:#4D007E;" d="M412.885,150.315c-2.185,0-4.369-0.836-6.033-2.5c-3.337-3.337-3.337-8.73,0-12.066L437.7,104.9
		c3.328-3.337,8.738-3.337,12.066,0c3.337,3.337,3.337,8.73,0,12.066l-30.848,30.848
		C417.246,149.487,415.061,150.315,412.885,150.315z"/>
	<path style="fill:#4D007E;" d="M469.333,145.067c-2.185,0-4.369-0.836-6.033-2.5l-51.2-51.2c-3.337-3.337-3.337-8.73,0-12.066
		c3.328-3.337,8.738-3.337,12.066,0l51.2,51.2c3.337,3.337,3.337,8.73,0,12.066C473.702,144.23,471.518,145.067,469.333,145.067z"/>
	<path style="fill:#4D007E;" d="M281.404,452.241c-18.15,0-36.446-3.209-54.007-9.822c-4.412-1.655-6.639-6.579-4.975-10.991
		c1.664-4.412,6.579-6.656,10.991-4.975c50.091,18.85,106.906,6.588,144.734-31.241c30.643-30.643,44.919-74.641,38.187-117.709
		c-0.725-4.659,2.458-9.02,7.117-9.754c4.659-0.717,9.02,2.458,9.745,7.117c7.561,48.435-8.508,97.937-42.982,132.412
		C360.917,436.574,321.502,452.241,281.404,452.241z"/>
	<path style="fill:#4D007E;" d="M305.732,283.068c-2.185,0-4.369-0.836-6.033-2.5c-3.337-3.337-3.337-8.73,0-12.066L386.5,181.7
		c3.328-3.337,8.73-3.337,12.066,0c3.337,3.337,3.337,8.73,0,12.066l-86.801,86.801
		C310.101,282.232,307.917,283.068,305.732,283.068z"/>
	<path style="fill:#4D007E;" d="M227.294,361.506c-2.185,0-4.369-0.836-6.033-2.5c-3.337-3.337-3.337-8.73,0-12.066l30.174-30.174
		c3.328-3.337,8.73-3.337,12.066,0s3.337,8.73,0,12.066l-30.174,30.174C231.663,360.678,229.478,361.506,227.294,361.506z"/>
	<path style="fill:#4D007E;" d="M170.667,187.733H34.133c-4.71,0-8.533-3.814-8.533-8.533s3.823-8.533,8.533-8.533h136.533
		c4.71,0,8.533,3.814,8.533,8.533S175.377,187.733,170.667,187.733z"/>
	<path style="fill:#4D007E;" d="M170.667,307.2H25.6c-4.71,0-8.533-3.814-8.533-8.533c0-4.719,3.823-8.533,8.533-8.533h145.067
		c4.71,0,8.533,3.814,8.533,8.533C179.2,303.386,175.377,307.2,170.667,307.2z"/>
	<path style="fill:#4D007E;" d="M110.933,426.667H42.667c-4.71,0-8.533-3.814-8.533-8.533c0-4.719,3.823-8.533,8.533-8.533h68.267
		c4.71,0,8.533,3.814,8.533,8.533C119.467,422.852,115.644,426.667,110.933,426.667z"/>
	<path style="fill:#4D007E;" d="M136.533,366.933H42.667c-4.71,0-8.533-3.814-8.533-8.533c0-4.719,3.823-8.533,8.533-8.533h93.867
		c4.71,0,8.533,3.814,8.533,8.533C145.067,363.119,141.244,366.933,136.533,366.933z"/>
	<path style="fill:#4D007E;" d="M145.067,247.467h-102.4c-4.71,0-8.533-3.814-8.533-8.533c0-4.719,3.823-8.533,8.533-8.533h102.4
		c4.71,0,8.533,3.814,8.533,8.533C153.6,243.652,149.777,247.467,145.067,247.467z"/>
	<path style="fill:#4D007E;" d="M281.344,341.333c-23.526,0-42.667-19.14-42.667-42.667S257.818,256,281.344,256
		s42.667,19.14,42.667,42.667S304.87,341.333,281.344,341.333z M281.344,273.067c-14.114,0-25.6,11.486-25.6,25.6
		s11.486,25.6,25.6,25.6c14.114,0,25.6-11.486,25.6-25.6S295.458,273.067,281.344,273.067z"/>
</g>
<g>
</g>
<g>
</g>
<g>
</g>
<g>
</g>
<g>
</g>
<g>
</g>
<g>
</g>
<g>
</g>
<g>
</g>
<g>
</g>
<g>
</g>
<g>
</g>
<g>
</g>
<g>
</g>
<g>
</g>
</svg>
