<svg enable-background="new 0 0 322.537 322.537" viewBox="0 0 322.537 322.537" xmlns="http://www.w3.org/2000/svg"><path d="m138.257 133.695c-10.721 0-19.443 8.722-19.443 19.442s8.723 19.441 19.443 19.441c10.719 0 19.439-8.721 19.439-19.441s-8.72-19.442-19.439-19.442z"/><path d="m283.421 53.838c-.034-.002-.069-.004-.103-.005-40.55-1.701-81.634-2.564-122.113-2.564s-81.52.863-121.982 2.564c-.034.001-.069.003-.104.005-21.791 1.369-38.973 20.419-39.119 43.401v76.957c.146 22.955 17.329 42.006 39.12 43.371.034.002.068.004.102.005 3.243.136 6.485.266 9.729.391v48.305c0 2.023 1.218 3.846 3.087 4.62.618.256 1.268.38 1.912.38 1.301 0 2.58-.508 3.536-1.464l50.174-50.173c17.882.33 35.977.498 53.823.498h.007c40.45 0 81.439-.86 121.827-2.557.036-.001.07-.003.105-.005 21.789-1.374 38.97-20.425 39.114-43.402v-76.96c-.144-22.947-17.326-41.996-39.115-43.367zm-187.026 129.308c0 1.381-1.119 2.5-2.5 2.5h-7c-1.381 0-2.5-1.119-2.5-2.5v-51.114l-28.492-46.456c-.474-.771-.492-1.739-.051-2.528.442-.79 1.276-1.279 2.182-1.279h8.427c.876 0 1.688.459 2.142 1.21l21.792 36.155 21.797-36.155c.452-.751 1.265-1.21 2.141-1.21h8.428c.905 0 1.739.489 2.182 1.279.442.79.423 1.757-.051 2.528l-28.496 46.457v51.113zm41.862 1.433c-17.338 0-31.443-14.105-31.443-31.441 0-17.337 14.105-31.442 31.443-31.442 17.336 0 31.439 14.105 31.439 31.442 0 17.336-14.103 31.441-31.439 31.441zm82.326-1.765c0 1.381-1.119 2.5-2.5 2.5h-7c-1.381 0-2.5-1.119-2.5-2.5v-.278c-3.362 1.484-7.15 2.278-11.018 2.278-12.694 0-23.021-8.341-23.021-18.594v-38.76c0-1.381 1.119-2.5 2.5-2.5h7c1.381 0 2.5 1.119 2.5 2.5v38.76c0 3.113 4.714 6.594 11.021 6.594 6.306 0 11.018-3.481 11.018-6.594v-38.76c0-1.381 1.119-2.5 2.5-2.5h7c1.381 0 2.5 1.119 2.5 2.5zm48.726-48.384c-.011.677-.294 1.32-.787 1.784-.492.463-1.139.707-1.828.677-.399.002-11.059.075-17.496 6.44-3.334 3.295-5.024 7.94-5.024 13.804v26.011c0 1.381-1.119 2.5-2.5 2.5h-7c-1.381 0-2.5-1.119-2.5-2.5v-56.017c0-1.381 1.119-2.5 2.5-2.5h7c1.381 0 2.5 1.119 2.5 2.5v4.775c9.133-6.637 20.227-7.011 22.589-7.011l.182.001c.664.008 1.298.28 1.761.756.464.476.719 1.117.709 1.781z"/></svg>