<svg height="512pt" viewBox="0 0 512.00001 512" width="512pt" xmlns="http://www.w3.org/2000/svg"><path d="m352.75 497.699219c-1.621094 8.28125-8.863281 14.269531-17.300781 14.300781h-317.792969c-9.738281-.027344-17.6289062-7.917969-17.65625-17.65625v-17.652344c-.0195312-49.324218 34.03125-92.125 82.097656-103.195312h188.910156c10.949219 2.484375 21.414063 6.75 30.984376 12.621094zm0 0" fill="#f0c419"/><path d="m406.070312 485.515625c-4.875 0-8.828124-3.949219-8.828124-8.824219v-52.96875c0-4.875 3.953124-8.824218 8.828124-8.824218s8.828126 3.949218 8.828126 8.824218v52.96875c0 4.875-3.953126 8.824219-8.828126 8.824219zm0 0" fill="#bdc3c7"/><path d="m406.070312 300.136719c-58.503906 0-105.933593 47.429687-105.933593 105.933593 0 58.503907 47.429687 105.929688 105.933593 105.929688 58.503907 0 105.929688-47.425781 105.929688-105.929688.007812-28.097656-11.148438-55.046874-31.019531-74.914062-19.867188-19.867188-46.816407-31.027344-74.910157-31.019531zm0 35.3125c25.460938.007812 48.945313 13.738281 61.4375 35.925781-1.941406 3.089844-13.503906 17.039062-61.4375 17.039062-48.023437 0-59.5-13.949218-61.441406-17.039062 12.492188-22.1875 35.976563-35.917969 61.441406-35.925781zm0 141.242187c-25.464843-.007812-48.949218-13.742187-61.441406-35.929687 1.941406-3.089844 13.417969-17.039063 61.441406-17.039063 47.933594 0 59.496094 13.949219 61.4375 17.039063-12.492187 22.1875-35.976562 35.921875-61.4375 35.929687zm0 0" fill="#7f8c8d"/><path d="m406.070312 300.136719c-58.503906 0-105.933593 47.429687-105.933593 105.933593 0 58.503907 47.429687 105.929688 105.933593 105.929688 58.503907 0 105.929688-47.425781 105.929688-105.929688.007812-28.097656-11.148438-55.046874-31.019531-74.914062-19.867188-19.867188-46.816407-31.027344-74.910157-31.019531zm61.4375 140.625c-17.429687 30.625-54.878906 43.566406-87.496093 30.230469-32.621094-13.332032-50.28125-48.800782-41.265625-82.867188s41.90625-56.152344 76.851562-51.609375c34.945313 4.546875 61.09375 34.3125 61.09375 69.554687-.019531 12.160157-3.183594 24.113282-9.183594 34.691407zm0 0" fill="#7f8c8d"/><path d="m476.691406 406.070312c.007813 12.164063-3.15625 24.121094-9.183594 34.691407-1.941406-3.089844-13.503906-17.039063-61.4375-17.039063-48.023437 0-59.5 13.949219-61.441406 17.039063-12.242187-21.507813-12.242187-47.875 0-69.386719 1.941406 3.089844 13.417969 17.039062 61.441406 17.039062 47.933594 0 59.496094-13.949218 61.4375-17.039062 6.027344 10.570312 9.191407 22.527344 9.183594 34.695312zm0 0" fill="#bdc3c7"/><path d="m132.414062 370.757812 44.136719 61.265626 52.964844-61.265626zm0 0" fill="#bdc3c7"/><path d="m203.035156 324.238281v67.265625l-26.484375 40.519532-26.480469-40.519532v-67.265625zm0 0" fill="#fdd7ad"/><path d="m185.378906 440.496094v71.503906h-17.65625v-71.503906c.480469-4.515625 4.289063-7.941406 8.828125-7.941406 4.542969 0 8.351563 3.425781 8.828125 7.941406zm0 0" fill="#2c3e50"/><path d="m88.277344 485.515625h-44.140625c-4.875 0-8.828125-3.949219-8.828125-8.824219 0-4.878906 3.953125-8.828125 8.828125-8.828125h44.140625c4.875 0 8.824218 3.949219 8.824218 8.828125 0 4.875-3.949218 8.824219-8.824218 8.824219zm0 0" fill="#f29c1f"/><path d="m326.621094 187.496094c0 1.589844 0 13.773437-.089844 15.539062h-299.960938c-.085937-1.765625-.085937-13.949218-.085937-15.539062-.019531-5.925782.273437-11.847656.882813-17.742188.691406-8.617187 2.019531-17.175781 3.972656-25.597656v-.089844h290.425781v.089844c1.953125 8.421875 3.28125 16.980469 3.972656 25.597656.605469 5.894532.902344 11.816406.882813 17.742188zm0 0" fill="#7f5b53"/><path d="m308.347656 194.207031h18.273438c9.722656.070313 17.585937 7.933594 17.65625 17.65625-.03125 9.738281-7.917969 17.625-17.65625 17.652344h-300.136719c-9.742187-.027344-17.628906-7.914063-17.65625-17.652344.070313-9.722656 7.933594-17.585937 17.65625-17.65625zm0 0" fill="#f09372"/><path d="m203.035156 324.238281v18.359375c-17.511718 3.179688-35.453125 3.179688-52.964844 0v-18.359375zm0 0" fill="#f09372"/><path d="m176.550781 432.023438-36.476562 22.320312c-2.019531 1.238281-4.449219 1.609375-6.746094 1.035156-2.296875-.574218-4.269531-2.046875-5.46875-4.085937l-43.234375-73.496094c-1.300781-2.210937-1.574219-4.878906-.753906-7.304687.824218-2.429688 2.660156-4.382813 5.035156-5.347657l28.058594-11.421875c3.855468-1.570312 8.277344-.1875 10.554687 3.292969l22.550781 34.488281zm0 0" fill="#ecf0f1"/><path d="m268.476562 377.796875-43.230468 73.496094c-1.203125 2.039062-3.171875 3.511719-5.46875 4.085937-2.296875.574219-4.730469.203125-6.75-1.035156l-36.476563-22.320312 26.484375-40.519532 22.507813-34.429687c2.300781-3.515625 6.769531-4.910157 10.660156-3.324219l27.996094 11.394531c2.371093.964844 4.210937 2.917969 5.03125 5.347657.820312 2.425781.546875 5.09375-.753907 7.304687zm0 0" fill="#ecf0f1"/><path d="m308.964844 205.59375c-.011719 4.1875-.246094 8.371094-.707032 12.535156-6.882812 61-63.203124 108.492188-131.707031 108.492188-68.5 0-124.820312-47.492188-131.707031-108.492188-.457031-4.164062-.691406-8.347656-.707031-12.535156.019531-7.015625.667969-14.019531 1.941406-20.921875.53125-2.734375 1.238281-5.472656 2.03125-8.207031.265625-1.148438.53125-2.207032.882813-3.355469 1.855468-4.238281 4.238281-9.359375 7.238281-14.917969h240.730469c2.914062 5.558594 5.296874 10.679688 7.148437 14.917969.355469 1.148437.617187 2.207031.882813 3.355469.796874 2.734375 1.5 5.472656 2.03125 8.207031 1.273437 6.902344 1.925781 13.90625 1.941406 20.921875zm0 0" fill="#fdd7ad"/><path d="m325.738281 169.753906c-5.765625 2.679688-11.800781 4.722656-18.007812 6.089844-.882813.179688-1.765625.441406-2.738281.621094-.265626-1.148438-.527344-2.207032-.882813-3.355469-1.851563-4.238281-4.234375-9.359375-7.148437-14.917969h-240.730469c-3 5.558594-5.382813 10.679688-7.238281 14.917969-.351563 1.148437-.617188 2.207031-.882813 3.355469-.96875-.179688-1.765625-.441406-2.648437-.621094-6.238282-1.355469-12.304688-3.398438-18.09375-6.089844.691406-8.617187 2.019531-17.175781 3.972656-25.597656v-.089844h290.425781v.089844c1.953125 8.421875 3.28125 16.980469 3.972656 25.597656zm0 0" fill="#59474e"/><path d="m304.992188 176.464844c-22.949219 5.117187-62.234376 8.914062-128.441407 8.914062s-105.488281-3.796875-128.441406-8.914062c.265625-1.148438.53125-2.207032.882813-3.355469 1.855468-4.238281 4.238281-9.359375 7.238281-14.917969h240.730469c2.914062 5.558594 5.296874 10.679688 7.148437 14.917969.355469 1.148437.617187 2.207031.882813 3.355469zm0 0" fill="#f09372"/><path d="m317.792969 132.414062.351562.351563c3.417969 2.664063 4.855469 7.148437 3.621094 11.300781v.089844c-1.855469 4.589844-8.210937 9.707031-24.804687 14.035156-20.746094 5.382813-57.203126 9.53125-120.410157 9.53125-63.117187 0-99.574219-4.058594-120.320312-9.53125-16.59375-4.328125-23.039063-9.445312-24.890625-14.035156v-.089844c-1.234375-4.152344.199218-8.636718 3.617187-11.300781l.351563-.351563 52.96875-61.792968h185.378906zm0 0" fill="#2c3e50"/><path d="m353.101562 88.277344c0 25.070312-31.6875 42.28125-35.042968 43.960937-.097656.042969-.1875.105469-.265625.175781 0 0-26.484375-35.3125-141.242188-35.3125-114.757812 0-141.242187 35.3125-141.242187 35.3125-.078125-.070312-.167969-.132812-.261719-.175781-3.355469-1.679687-35.046875-18.890625-35.046875-43.960937 0-26.484375 8.828125-88.277344 176.550781-88.277344 167.726563 0 176.550781 61.792969 176.550781 88.277344zm0 0" fill="#f0c419"/><g fill="#464f5d"><path d="m185.378906 52.964844c0 4.875-3.953125 8.828125-8.828125 8.828125s-8.828125-3.953125-8.828125-8.828125 3.953125-8.828125 8.828125-8.828125 8.828125 3.953125 8.828125 8.828125zm0 0"/><path d="m150.070312 52.964844c0 4.875-3.953124 8.828125-8.828124 8.828125s-8.828126-3.953125-8.828126-8.828125 3.953126-8.828125 8.828126-8.828125 8.828124 3.953125 8.828124 8.828125zm0 0"/><path d="m167.722656 70.621094c0 4.875-3.949218 8.828125-8.824218 8.828125-4.878907 0-8.828126-3.953125-8.828126-8.828125s3.949219-8.828125 8.828126-8.828125c4.875 0 8.824218 3.953125 8.824218 8.828125zm0 0"/><path d="m132.414062 70.621094c0 4.875-3.953124 8.828125-8.828124 8.828125s-8.828126-3.953125-8.828126-8.828125 3.953126-8.828125 8.828126-8.828125 8.828124 3.953125 8.828124 8.828125zm0 0"/><path d="m114.757812 52.964844c0 4.875-3.953124 8.828125-8.828124 8.828125s-8.828126-3.953125-8.828126-8.828125 3.953126-8.828125 8.828126-8.828125 8.828124 3.953125 8.828124 8.828125zm0 0"/><path d="m97.101562 70.621094c0 4.875-3.949218 8.828125-8.824218 8.828125s-8.828125-3.953125-8.828125-8.828125 3.953125-8.828125 8.828125-8.828125 8.824218 3.953125 8.824218 8.828125zm0 0"/><path d="m273.65625 70.621094c0 4.875-3.953125 8.828125-8.828125 8.828125s-8.828125-3.953125-8.828125-8.828125 3.953125-8.828125 8.828125-8.828125 8.828125 3.953125 8.828125 8.828125zm0 0"/><path d="m203.035156 70.621094c0 4.875-3.953125 8.828125-8.828125 8.828125s-8.828125-3.953125-8.828125-8.828125 3.953125-8.828125 8.828125-8.828125 8.828125 3.953125 8.828125 8.828125zm0 0"/><path d="m220.691406 52.964844c0 4.875-3.953125 8.828125-8.828125 8.828125s-8.828125-3.953125-8.828125-8.828125 3.953125-8.828125 8.828125-8.828125 8.828125 3.953125 8.828125 8.828125zm0 0"/><path d="m238.34375 70.621094c0 4.875-3.949219 8.828125-8.828125 8.828125-4.875 0-8.824219-3.953125-8.824219-8.828125s3.949219-8.828125 8.824219-8.828125c4.878906 0 8.828125 3.953125 8.828125 8.828125zm0 0"/><path d="m256 52.964844c0 4.875-3.953125 8.828125-8.828125 8.828125s-8.828125-3.953125-8.828125-8.828125 3.953125-8.828125 8.828125-8.828125 8.828125 3.953125 8.828125 8.828125zm0 0"/></g></svg>