<svg height="512" viewBox="0 0 64 64" width="512" xmlns="http://www.w3.org/2000/svg"><g id="Businessman-2" data-name="Businessman"><path d="m21 32v.16.84 2l3 2h2l3-2v-2-.84-.16z" fill="#ffc477"/><path d="m21 32v2.16a9.944 9.944 0 0 0 8 0v-2.16z" fill="#ffb655"/><path d="m45 49.32v11.68h-19l2-3-1.9-17.1.9-.9 3 2 2.79-5.58 4.42 1.66c.25.09.49.19.73.3.39.18.76.37 1.12.58a11.982 11.982 0 0 1 5.39 6.78 11.352 11.352 0 0 1 .52 2.98q.03.3.03.6z" fill="#3d9ae2"/><path d="m52 29-2 5h-6l-2-5z" fill="#ff9811"/><path d="m51 35v1a1 1 0 0 1 -1 1h-6a1 1 0 0 1 -1-1v-1a1 1 0 0 1 1-1h6a1 1 0 0 1 1 1z" fill="#ee8700"/><path d="m45 49.32v11.68h-12a2 2 0 0 1 0-4v-10a9.979 9.979 0 0 1 4.06-8.04 8.917 8.917 0 0 1 .88-.58c.39.18.76.37 1.12.58a11.982 11.982 0 0 1 5.39 6.78 11.352 11.352 0 0 1 .52 2.98q.03.3.03.6z" fill="#1e81ce"/><path d="m37 17a3 3 0 0 1 0 6 2.965 2.965 0 0 1 -2-.77v-4.46a2.965 2.965 0 0 1 2-.77z" fill="#ffb655"/><path d="m37 9v5l-2 2h-1.53a4.02 4.02 0 0 1 -3.58-2.21l-.89-1.79-2.26 1.81a9.993 9.993 0 0 1 -6.25 2.19h-5.49l-5-3 3-4-4-6h22a6 6 0 0 1 6 6z" fill="#57565c"/><path d="m32.79 36.42-2.79 5.58-3-2-1-3 3-2z" fill="#1e81ce"/><path d="m26.1 40.9 1.9 17.1-2 3h-2l-2-3 1.9-17.1 1.1 1.1z" fill="#ff5023"/><path d="m26 37 1 3-.9.9-1.1 1.1-1.1-1.1-.9-.9 1-3z" fill="#f24218"/><path d="m24 37-1 3-3 2-2.79-5.58 3.79-1.42z" fill="#1e81ce"/><path d="m13 61h-8v-11.68a12 12 0 0 1 7.79-11.24l4.42-1.66 2.79 5.58 3-2 .9.9-1.9 17.1 2 3z" fill="#3d9ae2"/><path d="m15 17.77v4.46a2.965 2.965 0 0 1 -2 .77 3 3 0 0 1 0-6 2.965 2.965 0 0 1 2 .77z" fill="#ffb655"/><path d="m35 22.23v.77a9.991 9.991 0 0 1 -6 9.16 10 10 0 0 1 -14-9.16v-7h5.49a9.993 9.993 0 0 0 6.25-2.19l2.26-1.81.89 1.79a4.02 4.02 0 0 0 3.58 2.21h1.53z" fill="#ffc477"/><path d="m60.41 57.59a1.955 1.955 0 0 0 -1.41-.59v-10a10 10 0 0 0 -10-10h-4a10.009 10.009 0 0 0 -10 10v10a2 2 0 0 0 0 4h24a2.006 2.006 0 0 0 2-2 1.955 1.955 0 0 0 -.59-1.41z" fill="#ff9811"/><path d="m20 19h2v2h-2z"/><path d="m28 19h2v2h-2z"/><path d="m30 24h-2a3 3 0 0 1 -6 0h-2a5 5 0 0 0 10 0z"/><path d="m60 56.171v-9.171a11.012 11.012 0 0 0 -8.045-10.585 1.962 1.962 0 0 0 .045-.415v-1a1.988 1.988 0 0 0 -.715-1.52l1.644-4.108a1 1 0 0 0 -.929-1.372h-10a1 1 0 0 0 -.929 1.372l1.644 4.108a1.988 1.988 0 0 0 -.715 1.52v1a1.962 1.962 0 0 0 .045.415 10.937 10.937 0 0 0 -3.05 1.38 12.329 12.329 0 0 0 -1.433-.651l-7.562-2.837v-1.521a11.006 11.006 0 0 0 5.957-8.941 4 4 0 1 0 .4-7.785l1.352-1.353a1 1 0 0 0 .291-.707v-5a7.008 7.008 0 0 0 -7-7h-22a1 1 0 0 0 -.832 1.555l3.607 5.411-2.575 3.434a1 1 0 0 0 .285 1.457l3.582 2.149c-.023 0-.045-.006-.067-.006a4 4 0 1 0 1.043 7.845 11.006 11.006 0 0 0 5.957 8.941v1.521l-7.562 2.837a13.068 13.068 0 0 0 -8.438 12.176v11.68a1 1 0 0 0 1 1h54a3 3 0 0 0 1-5.829zm-9.477-26.171-1.2 3h-4.646l-1.2-3zm-6.523 6v-1h6v1zm-6.734 3.188a10.967 10.967 0 0 0 -3.266 7.812v9.171a3.006 3.006 0 0 0 -2 2.829 2.966 2.966 0 0 0 .184 1h-4.316l.964-1.445a1 1 0 0 0 .162-.665l-1.843-16.59 2.294 1.53a1.007 1.007 0 0 0 .555.17.981.981 0 0 0 .257-.034 1 1 0 0 0 .638-.519l2.386-4.773 3.583 1.345c.136.049.268.113.402.169zm-13.121.542.576-1.73h.558l.576 1.73-.855.856zm7.255-2.762-1.788 3.572-1.772-1.182-.65-1.949 1.938-1.293zm7.6-16.968a2 2 0 0 1 -2 2 1.982 1.982 0 0 1 -1-.274v-3.452a1.982 1.982 0 0 1 1-.274 2 2 0 0 1 2 2zm-25.2-10.4a1 1 0 0 0 .032-1.155l-2.964-4.445h20.132a5.006 5.006 0 0 1 5 5v4.586l-1.414 1.414h-1.114a2.983 2.983 0 0 1 -2.683-1.658l-.889-1.789a1 1 0 0 0 -.68-.53 1.048 1.048 0 0 0 -.22-.023 1 1 0 0 0 -.625.219l-2.261 1.809a9.039 9.039 0 0 1 -5.622 1.972h-5.215l-3.812-2.287zm-2.8 10.4a2 2 0 0 1 2-2 1.982 1.982 0 0 1 1 .274v3.452a1.982 1.982 0 0 1 -1 .274 2 2 0 0 1 -2-2zm5 3v-6h4.492a11.038 11.038 0 0 0 6.872-2.411l1.295-1.035.341.682a4.973 4.973 0 0 0 4.472 2.764h.528v6a9 9 0 0 1 -18 0zm9 11a10.966 10.966 0 0 0 3-.426v.891l-2.3 1.535h-1.4l-2.3-1.535v-.891a10.966 10.966 0 0 0 3 .426zm-4.128 2.116 1.938 1.293-.65 1.949-1.772 1.182-1.788-3.572zm-14.872 13.204a11.056 11.056 0 0 1 7.142-10.3l3.577-1.343 2.386 4.773a1 1 0 0 0 .638.519.981.981 0 0 0 .257.031 1.007 1.007 0 0 0 .555-.168l2.294-1.53-1.843 16.588a1 1 0 0 0 .162.665l.964 1.445h-8.132v-15h-2v15h-6zm18.535 10.68-1.5-2.251 1.645-14.811a.857.857 0 0 0 .64 0l1.646 14.811-1.501 2.251zm34.465 0h-24a1 1 0 0 1 0-2 1 1 0 0 0 1-1v-10a9.01 9.01 0 0 1 9-9h4a9.01 9.01 0 0 1 9 9v10a1 1 0 0 0 1 1 1 1 0 0 1 0 2z"/><path d="m46 46h2a1 1 0 0 1 1 1h2a3 3 0 0 0 -3-3v-1h-2v1a3 3 0 0 0 0 6h2a1 1 0 0 1 0 2h-2a1 1 0 0 1 -1-1h-2a3 3 0 0 0 3 3v1h2v-1a3 3 0 0 0 0-6h-2a1 1 0 0 1 0-2z"/><path d="m53 48h2v2h-2z"/><path d="m39 48h2v2h-2z"/></g></svg>