<svg height="463pt" viewBox="-63 0 463 463.97461" width="463pt" xmlns="http://www.w3.org/2000/svg"><path d="m136.488281 255.972656h64v48h-64zm0 0" fill="#f9d7c0"/><path d="m136.488281 281.269531c20.394531 8.9375 43.601563 8.9375 64 0v-25.296875h-64zm0 0" fill="#eeceb8"/><path d="m56.488281 144.582031c0 13.769531 10.125 25.445313 23.757813 27.390625l33.128906 4.738282c36.554688 5.214843 73.667969 5.214843 110.222656 0l33.128906-4.738282c13.632813-1.945312 23.757813-13.621094 23.761719-27.390625l-43.753906-9.40625c-44.988281-9.640625-91.507813-9.640625-136.496094 0zm0 0" fill="#5e8569"/><path d="m168.488281 63.972656c44.183594 0 80 35.820313 80 80v48c0 44.183594-35.816406 80-80 80-44.183593 0-80-35.816406-80-80v-48c0-44.179687 35.816407-80 80-80zm0 0" fill="#f9d7c0"/><path d="m56.488281 303.972656h224c26.507813 0 48 21.492188 48 48v104h-320v-104c0-26.507812 21.488281-48 48-48zm0 0" fill="#85bc94"/><path d="m280.488281 303.972656c-8.835937 0-16 7.164063-16 16 0 8.839844 7.164063 16 16 16h8c4.417969 0 8 3.582032 8 8 0 4.421875 3.582031 8 8 8h24c0-26.507812-21.492187-48-48-48zm0 0" fill="#5e8569"/><path d="m32.488281 359.972656c4.417969 0 8-3.578125 8-8 0-4.417968 3.582031-8 8-8h8c8.835938 0 16-7.160156 16-16 0-8.835937-7.164062-16-16-16h-4c-4.207031-.015625-8.101562-2.234375-10.257812-5.847656-20.074219 6.246094-33.75 24.828125-33.742188 45.847656v8zm0 0" fill="#55785f"/><g fill="#9c775c"><path d="m136.488281 175.972656c-4.417969 0-8-3.578125-8-8v-8c0-4.417968 3.582031-8 8-8s8 3.582032 8 8v8c0 4.421875-3.582031 8-8 8zm0 0"/><path d="m200.488281 175.972656c-4.417969 0-8-3.578125-8-8v-8c0-4.417968 3.582031-8 8-8s8 3.582032 8 8v8c0 4.421875-3.582031 8-8 8zm0 0"/><path d="m168.488281 235.839844c-9.015625.011718-17.976562-1.433594-26.527343-4.28125-4.199219-1.394532-6.46875-5.929688-5.074219-10.128906 1.398437-4.195313 5.929687-6.46875 10.128906-5.070313 13.945313 4.605469 29 4.605469 42.945313 0 4.195312-1.398437 8.730468.875 10.125 5.070313 1.398437 4.199218-.875 8.734374-5.070313 10.128906-8.554687 2.847656-17.511719 4.292968-26.527344 4.28125zm0 0"/><path d="m168.488281 207.972656c-2.121093 0-4.15625-.839844-5.65625-2.34375l-8-8c-2.140625-2.140625-2.886719-5.308594-1.929687-8.183594l8-24c1.398437-4.195312 5.929687-6.46875 10.128906-5.070312 4.199219 1.394531 6.46875 5.929688 5.070312 10.128906l-6.398437 19.300782 4.496094 4.515624c2.292969 2.292969 2.976562 5.746094 1.722656 8.742188-1.253906 2.992188-4.1875 4.933594-7.433594 4.910156zm0 0"/></g><path d="m8.488281 391.972656h64v64h-64zm0 0" fill="#f9d7c0"/><path d="m264.488281 391.972656h64v64h-64zm0 0" fill="#f9d7c0"/><path d="m160.488281 359.972656h16v96h-16zm0 0" fill="#74a481"/><path d="m72.488281 399.972656h23.605469c9.054688 0 16.394531 7.339844 16.394531 16.394532 0 4.203124 3.40625 7.605468 7.605469 7.605468h4.394531c6.625 0 12 5.375 12 12v20h-64zm0 0" fill="#5e8569"/><path d="m224.488281 379.972656c0 6.628906-5.375 12-12 12-6.628906 0-12 5.375-12 12 0 6.628906 5.371094 12 12 12h12c4.417969 0 8 3.582032 8 8 0 4.421875 3.582031 8 8 8h24v-64h-28c-6.628906 0-12 5.375-12 12zm0 0" fill="#55785f"/><path d="m120.488281 375.972656h16v16h-16zm0 0" fill="#55785f"/><path d="m248.488281 183.972656v-48h32v16c0 17.675782-14.328125 32-32 32zm0 0" fill="#eeceb8"/><path d="m88.488281 183.972656v-48h-32v16c0 17.675782 14.324219 32 32 32zm0 0" fill="#eeceb8"/><path d="m88.488281 111.972656h160v24h-160zm0 0" fill="#dcbea9"/><path d="m280.488281 143.972656-43.753906-9.375c-44.988281-9.640625-91.507813-9.640625-136.496094 0l-43.75 9.375v-17.375c0-4.242187 1.6875-8.3125 4.6875-11.3125l11.3125-11.3125c0-53.015625 42.980469-96 96-96s96 42.984375 96 96l11.3125 11.3125c3 3 4.6875 7.070313 4.6875 11.3125zm0 0" fill="#85bc94"/><path d="m207.632812 16.375c-1.804687 4.578125-6.222656 7.589844-11.144531 7.597656h-4c-8.835937 0-16 7.164063-16 16 0 8.839844 7.164063 16 16 16h8c4.417969 0 8 3.582032 8 8 0 4.421875 3.582031 8 8 8h42.398438c-8.777344-24.753906-27.292969-44.839844-51.253907-55.597656zm0 0" fill="#5e8569"/><path d="m72.488281 103.972656-6.007812 6.011719h42.007812c6.625 0 12-5.375 12-12 0-6.628906 5.371094-12 12-12h4c8.835938 0 16-7.164063 16-16 0-8.839844-7.164062-16-16-16h-1c-8.285156 0-15-6.71875-15-15 .003907-5.441406-2.949219-10.457031-7.703125-13.097656-25.285156 17.96875-40.300781 47.070312-40.296875 78.085937zm0 0" fill="#5e8569"/><path d="m280.488281 143.972656v-17.375c0-4.242187-1.6875-8.3125-4.6875-11.3125l-11.3125-11.3125c0-2.398437-.183593-4.796875-.367187-7.199218l-11.867188-.390626c-7.167968-.242187-13.824218 3.71875-17.03125 10.136719-1.773437 3.550781-4.65625 6.429688-8.207031 8.207031l-26.527344 13.246094.351563 1.050782c12.058594 1.195312 24.042968 3.066406 35.894531 5.597656zm0 0" fill="#5e8569"/><path d="m64.488281 359.972656h8v40h-8zm0 0" fill="#6b9777"/><path d="m264.488281 359.972656h8v40h-8zm0 0" fill="#6b9777"/><path d="m8.488281 391.972656h64v32h-64zm0 0" fill="#74a481"/><path d="m264.488281 391.972656h64v32h-64zm0 0" fill="#74a481"/><path d="m136.488281 303.972656 32 64 32-64zm0 0" fill="#55785f"/><path d="m200.488281 303.972656 32 32-64 32zm0 0" fill="#b9b9b9"/><path d="m136.488281 303.972656-32 32 64 32zm0 0" fill="#b9b9b9"/><path d="m144.488281 167.972656v-8c0-4.417968-3.582031-8-8-8s-8 3.582032-8 8v8c0 4.421875 3.582031 8 8 8s8-3.578125 8-8zm0 0"/><path d="m200.488281 175.972656c4.417969 0 8-3.578125 8-8v-8c0-4.417968-3.582031-8-8-8s-8 3.582032-8 8v8c0 4.421875 3.582031 8 8 8zm0 0"/><path d="m168.488281 235.839844c9.015625.011718 17.972657-1.433594 26.527344-4.28125 4.195313-1.394532 6.46875-5.929688 5.070313-10.128906-1.394532-4.195313-5.929688-6.46875-10.125-5.070313-13.945313 4.605469-29 4.605469-42.945313 0-4.199219-1.398437-8.730469.875-10.128906 5.070313-1.394531 4.199218.875 8.734374 5.074219 10.128906 8.550781 2.847656 17.511718 4.292968 26.527343 4.28125zm0 0"/><path d="m162.832031 205.628906c3.136719 3.035156 8.128907 2.988282 11.214844-.097656 3.085937-3.082031 3.128906-8.074219.097656-11.210938l-4.496093-4.515624 6.398437-19.300782c1.398437-4.199218-.875-8.734375-5.070313-10.128906-4.199218-1.398438-8.734374.875-10.128906 5.070312l-8 24c-.957031 2.875-.210937 6.042969 1.925782 8.183594zm0 0"/><path d="m8.488281 463.972656h320c4.417969 0 8-3.578125 8-8v-104c-.039062-30.910156-25.089843-55.957031-56-56h-72v-25.695312c29.445313-15.003906 47.988281-45.253906 48-78.304688v-.796875c18.609375-3.828125 31.976563-20.199219 32-39.203125v-25.375c.015625-6.367187-2.515625-12.476562-7.03125-16.96875l-9.027343-9.023437c0-.863281-.160157-1.695313-.207032-2.550781-.046875-.632813-.078125-1.230469-.128906-1.894532 0-.050781 0-.089844-.039062-.144531-1.207032-16.148437-6.203126-31.785156-14.582032-45.640625l-.234375-.359375c-1.703125-2.800781-3.542969-5.503906-5.496093-8.128906-.222657-.289063-.453126-.566407-.671876-.863281-1.847656-2.402344-3.773437-4.738282-5.824218-6.976563-.367188-.410156-.742188-.800781-1.117188-1.199219-1.941406-2.066406-3.96875-4.050781-6.074218-5.953125-.519532-.472656-1.046876-.9375-1.597657-1.398437-2.035156-1.75-4.128906-3.429688-6.28125-5.035156-.65625-.488282-1.3125-.972657-1.984375-1.445313-2.132812-1.496094-4.316406-2.90625-6.550781-4.242187-.746094-.445313-1.472656-.894532-2.234375-1.328126-2.3125-1.300781-4.679688-2.496093-7.09375-3.621093-.496094-.234375-.953125-.523438-1.441406-.738281-.070313 0-.152344 0-.222656-.054688-33.417969-14.988281-72.28125-11.128906-102.097657 10.144531-.136719.085938-.289062.125-.421875.222657-.410156.289062-.753906.632812-1.152344.929687-2.449218 1.804687-4.8125 3.714844-7.089843 5.71875-.617188.542969-1.238281 1.070313-1.839844 1.601563-2.597656 2.398437-5.070313 4.902343-7.414063 7.542968-.121093.136719-.257812.261719-.378906.398438-5.097656 5.847656-9.527344 12.238281-13.214844 19.066406-.199218.375-.375.75-.574218 1.125-1.554688 2.945312-2.957032 5.96875-4.21875 9.074219-.261719.632812-.503906 1.261719-.75 1.902343-1.117188 2.878907-2.097656 5.8125-2.945313 8.800782-.214843.761718-.449219 1.511718-.648437 2.28125-.800782 2.957031-1.390625 5.976562-1.894532 9.03125-.136718.800781-.3125 1.519531-.425781 2.289062-.558593 3.785156-.902343 7.597656-1.039062 11.421875l-9.023438 9.023438c-4.523437 4.496093-7.058593 10.617187-7.03125 16.992187v25.375c.023438 19.003906 13.386719 35.375 32 39.203125v.796875c.007813 33.050782 18.550781 63.304688 48 78.304688v25.695312h-72c-5.625-.003906-11.21875.84375-16.59375 2.515625l-.101562.046875c-2.4375.78125-4.816407 1.730469-7.121094 2.847656-.703125.328126-1.402344.648438-2.082031 1.007813-1.972656 1.027344-3.882813 2.175781-5.71875 3.433594-.945313.644531-1.839844 1.351562-2.734375 2.046875-.898438.695312-1.960938 1.597656-2.90625 2.449218-1.480469 1.320313-2.890625 2.722657-4.222657 4.199219-.753906.839844-1.496093 1.671875-2.199218 2.550781-.800782 1.03125-1.601563 2.082032-2.402344 3.199219-1.066406 1.527344-2.046875 3.105469-2.941406 4.738281-.554688 1.015626-1.042969 2.046876-1.539063 3.09375-.703125 1.488282-1.335937 3-1.910156 4.5625-.289063.796876-.601563 1.527344-.855469 2.308594-.726562 2.324219-1.304687 4.6875-1.730468 7.082032-.109376.648437-.199219 1.296874-.292969 1.953124-.40625 2.636719-.625 5.296876-.648438 7.964844v104c0 4.421875 3.582031 8 8 8zm120-16h-48v-40h15.605469c4.632812.011719 8.382812 3.761719 8.394531 8.394532.007813 8.617187 6.992188 15.597656 15.605469 15.605468h4.394531c2.207031 0 4 1.792969 4 4zm59.054688-136-19.054688 38.113282-19.058593-38.113282zm-43.054688-16v-19.4375c15.671875 4.582032 32.328125 4.582032 48 0v19.4375zm112 96v32h-16c0-8.835937-7.164062-16-16-16h-12c-2.210937 0-4-1.789062-4-4 0-2.207031 1.789063-4 4-4 11.042969 0 20-8.953125 20-20 0-2.207031 1.789063-4 4-4h20zm64 56h-48v-16h48zm0-32h-48v-16h48zm-40-104c2.550781.023438 5.097657.292969 7.597657.800782.800781.160156 1.601562.433593 2.363281.640624 1.628906.394532 3.230469.886719 4.796875 1.480469.882812.351563 1.714844.800781 2.554687 1.191407 1.371094.640624 2.707031 1.359374 4 2.152343.796875.527344 1.597657 1.089844 2.398438 1.671875 1.175781.863282 2.304687 1.792969 3.375 2.785156.722656.65625 1.425781 1.328126 2.089843 2.039063 1.003907 1.089844 1.949219 2.238281 2.832032 3.433594.558594.75 1.144531 1.488281 1.65625 2.277343.851562 1.367188 1.621094 2.785157 2.3125 4.242188.359375.742188.796875 1.445312 1.09375 2.214844.886718 2.15625 1.578125 4.386718 2.074218 6.664062 0 .144532.09375.273438.125.417969h-15.269531c0-8.839844-7.164062-16-16-16h-8c-4.417969 0-8-3.582031-8-8 0-4.421875 3.582031-8 8-8zm-22.527343 0c-.949219 2.5625-1.445313 5.269532-1.472657 8 0 13.257813 10.746094 24 24 24h8c0 8.839844 7.164063 16 16 16h16v24h-48v-24h-36c-11.046875 0-20 8.957032-20 20 0 2.210938-1.792969 4-4 4-11.046875 0-20 8.957032-20 20 0 11.046875 8.953125 20 20 20h12c0 8.839844 7.164063 16 16 16h16v8h-80v-75.054687l59.574219-29.742188c2.296875-1.152343 3.898438-3.335937 4.3125-5.871093.410156-2.535157-.417969-5.113282-2.230469-6.929688l-18.34375-18.402344zm-38.976563 21.808594-32.609375 16.304688 16.304688-32.605469zm53.503906-181.808594c-.011719 10.167969-6.417969 19.230469-16 22.632813v-26.96875l16 3.441406zm-15.554687-45.75c.058594.3125.136718.617188.234375.921875.390625.925781.957031 1.769531 1.664062 2.484375l11.3125 11.3125c1.5 1.5 2.34375 3.535156 2.34375 5.65625v7.480469l-34.074219-7.296875c-4.175781-.898438-8.421874-1.722656-12.734374-2.460938l4.917968-2.457031c5.089844-2.558593 9.21875-6.6875 11.777344-11.777343 1.839844-3.585938 5.566406-5.8125 9.601562-5.726563l4.511719.152344c.082031.585937.234375 1.160156.445313 1.710937zm-64.445313-74.25h4c5.09375.015625 10-1.925781 13.703125-5.421875 3.703125 2.023438 7.257813 4.3125 10.632813 6.847657.328125.238281.65625.480468.984375.734374 6.828125 5.234376 12.863281 11.433594 17.910156 18.402344l.175781.238282c2.566407 3.558593 4.863281 7.300781 6.871094 11.199218h-30.277344c0-8.835937-7.164062-16-16-16h-8c-4.417969 0-8-3.578125-8-8 0-4.417968 3.582031-8 8-8zm-111.753906 67.105469c.105469-1.847656.207031-3.695313.425781-5.527344.128906-1.054687.320313-2.097656.488282-3.144531.320312-2.0625.671874-4.121094 1.144531-6.136719.183593-.800781.40625-1.597656.613281-2.398437.585938-2.242188 1.234375-4.449219 1.984375-6.625.214844-.617188.449219-1.222656.671875-1.832032.855469-2.296874 1.800781-4.554687 2.839844-6.765624.242187-.515626.488281-1.027344.738281-1.53125 1.113281-2.238282 2.320313-4.433594 3.613281-6.582032.28125-.464844.5625-.929687.847656-1.382812 1.355469-2.144532 2.816407-4.234375 4.355469-6.265625.300781-.398438.589844-.800781.902344-1.207031 1.664063-2.132813 3.425781-4.167969 5.289063-6.105469.230468-.246094.445312-.511719.6875-.800781 2.128906-2.207032 4.371093-4.300782 6.71875-6.277344.28125.765625.429687 1.578125.433593 2.398437.015625 12.695313 10.304688 22.984375 23 23h1c4.417969 0 8 3.582031 8 8s-3.582031 8-8 8h-4c-11.046875 0-20 8.953125-20 20 0 2.210938-1.792969 4-4 4h-27.898437c.015625-.886719.089844-1.847656.144531-2.816406zm-16.246094 27.519531c0-2.121094.84375-4.15625 2.34375-5.65625l2.960938-2.957031h38.695312c11.042969 0 20-8.957031 20-20 0-2.210937 1.789063-4 4-4h4c13.253907 0 24-10.746094 24-24 0-13.257813-10.746093-24-24-24h-1c-3.863281-.011719-6.992187-3.140625-7-7-.003906-4.085937-1.09375-8.09375-3.160156-11.617187 17.878906-10.210938 38.808594-13.710938 59.039063-9.878907-10.972657 3.925781-17.523438 15.183594-15.519532 26.664063 2.003906 11.480468 11.984375 19.847656 23.640625 19.820312h8c0 8.839844 7.164063 16 16 16h36.589844c.785156 2.773438 1.4375 5.601563 1.953125 8.480469l-2.519531-.078125c-10.320313-.449219-19.921875 5.265625-24.449219 14.550781-1 2-2.621094 3.625-4.625 4.625l-26.246094 13.128907c-9.601562-.800782-19.136718-1.359376-28.703125-1.359376-23.507812.011719-46.949219 2.511719-69.929687 7.460938l-34.070313 7.296875zm16 48c-9.578125-3.402344-15.984375-12.457031-16-22.625v-.894531l16-3.441406zm16 17.375v-47.804687l5.429688-1.167969c43.890625-9.296875 89.238281-9.296875 133.128906 0l5.441406 1.160156v47.8125c0 39.765625-32.238281 72-72 72-39.765625 0-72-32.234375-72-72zm37.808594 125.507813 16.300781 32.605469-32.605468-16.304688zm-117.074219 27.199219c.113282-.585938.25-1.152344.382813-1.730469.460937-2.015625 1.074219-3.992188 1.84375-5.910157.109375-.28125.199219-.578124.316406-.855468 1.96875-4.546875 4.761719-8.6875 8.242187-12.210938l.480469-.484375c1.707031-1.6875 3.5625-3.214843 5.542969-4.570312l.152344-.121094c1.859375-1.230469 3.820312-2.300781 5.863281-3.199219 3.523437 2.839844 7.914063 4.386719 12.441406 4.375h4c4.417969 0 8 3.582032 8 8 0 4.421875-3.582031 8-8 8h-8c-8.835937 0-16 7.164063-16 16h-16c.019531-2.449218.265625-4.894531.734375-7.300781zm-.734375 23.292968h16c8.835938 0 16-7.160156 16-16h8c9.484375.042969 18.097657-5.527344 21.945313-14.195312 3.847656-8.671875 2.207031-18.796875-4.1875-25.804688h42.929687l-18.34375 18.347656c-1.8125 1.816407-2.644531 4.394532-2.230469 6.929688.410157 2.535156 2.015626 4.71875 4.308594 5.867188l59.578125 29.800781v75.054687h-16v-12c0-11.042968-8.957031-20-20-20l-4 .394532c-.019531-13.464844-10.929687-24.375-24.394531-24.394532h-15.605469v-32h-16v24h-48zm0 32h48v16h-48zm0 32h48v16h-48zm0 0"/><path d="m120.488281 375.972656h16v16h-16zm0 0"/></svg>