<svg height="496pt" viewBox="-24 0 496 496" width="496pt" xmlns="http://www.w3.org/2000/svg"><path d="m392 0c30.878906 0 56 25.121094 56 56 0 30.960938-25.121094 56-56 56-30.960938 0-56-25.039062-56-56 0-30.878906 25.039062-56 56-56zm0 0" fill="#a0d468"/><path d="m392 0c-2.726562 0-5.390625.257812-8.015625.640625 27.09375 3.894531 48 27.199219 48 55.359375 0 28.230469-20.90625 51.472656-48 55.359375 2.625.382813 5.289063.640625 8.015625.640625 30.878906 0 56-25.039062 56-56 0-30.878906-25.121094-56-56-56zm0 0" fill="#8cc152"/><path d="m128 144.007812-24 24v-40c0-53.039062 42.960938-96 96-96h64v32c26.558594 0 48 21.519532 48 48v56l-24-24s-36.558594 16-80 16-80-16-80-16zm0 0" fill="#965353"/><path d="m264 88.007812c13.230469 0 24 10.769532 24 24v32l24 24v-56c0-26.480468-21.441406-48-48-48v-32h-24v32c0 13.257813 10.742188 24 24 24zm0 0" fill="#844747"/><path d="m312 200c0 40.160156-22.71875 74.960938-56 92.320312-14.398438 7.441407-30.71875 11.679688-48 11.679688s-33.601562-4.238281-48-11.679688c-33.28125-17.359374-56-52.167968-56-92.320312v-31.992188l24-24s36.558594 16 80 16 80-16 80-16l24 24zm0 0" fill="#eac6bb"/><path d="m288 144.007812-.023438.007813v55.984375c0 40.160156-22.71875 74.960938-56 92.320312-11.007812 5.6875-23.160156 9.464844-35.992187 10.945313 3.953125.453125 7.953125.734375 12.015625.734375 17.28125 0 33.601562-4.238281 48-11.679688 33.28125-17.359374 56-52.167968 56-92.320312v-31.992188zm0 0" fill="#d3b1a9"/><path d="m128.160156 320 24.085938 40.160156-16.238282 8 40.070313 47.839844h-104.078125v-40c0-30.960938 25.039062-56 56-56zm0 0" fill="#545c66"/><path d="m160.160156 320.078125 23.917969 95.921875h-8l-40.078125-47.839844 16.238281-8-24.078125-40.160156h31.839844zm0 0" fill="#656d78"/><path d="m200.160156 350.558594v.082031l-8.082031 65.359375h-8l-23.917969-95.921875 28 15.921875zm0 0" fill="#e6e9ed"/><path d="m208 304c17.28125 0 33.601562-4.238281 48-11.679688v27.679688l-27.921875 16-20.078125-8-19.839844 8-28-15.921875-.160156-.078125v-27.679688c14.398438 7.441407 30.71875 11.679688 48 11.679688zm0 0" fill="#f5f7fa"/><path d="m216.160156 350.398438 8 65.601562h-32.082031l8.082031-65.359375zm0 0" fill="#da4453"/><path d="m256 320-23.839844 96h-8l-8-65.601562 11.917969-14.398438zm0 0" fill="#e6e9ed"/><path d="m264 360.160156 16.160156 8-40 47.839844h-8l23.839844-96h32zm0 0" fill="#656d78"/><path d="m288 320c30.960938 0 56 25.039062 56 56v40h-103.839844l40-47.839844-16.160156-8zm0 0" fill="#545c66"/><path d="m416 456-48.015625 32h.015625v-32zm0 0" fill="#545c66"/><path d="m48 456v32h.015625l-48.015625-32zm0 0" fill="#545c66"/><path d="m368 488v8h-320v-40h320zm0 0" fill="#965353"/><g fill="#e6e9ed"><path d="m32.007812 344c-2.046874 0-4.097656-.785156-5.65625-2.34375-3.128906-3.128906-3.128906-8.191406 0-11.3125l28.6875-28.65625c3.128907-3.128906 8.183594-3.128906 11.3125 0 3.128907 3.128906 3.128907 8.191406 0 11.3125l-28.6875 28.65625c-1.558593 1.558594-3.609374 2.34375-5.65625 2.34375zm0 0"/><path d="m32.007812 424.015625c-4.421874 0-8-3.574219-8-8v-80.015625c0-4.425781 3.578126-8 8-8 4.425782 0 8 3.574219 8 8v80.015625c0 4.425781-3.574218 8-8 8zm0 0"/><path d="m384.007812 344c-2.046874 0-4.097656-.785156-5.65625-2.34375l-28.6875-28.65625c-3.128906-3.121094-3.128906-8.183594 0-11.3125 3.113282-3.128906 8.183594-3.128906 11.3125 0l28.6875 28.65625c3.128907 3.121094 3.128907 8.183594 0 11.3125-1.550781 1.558594-3.609374 2.34375-5.65625 2.34375zm0 0"/><path d="m384.007812 424.015625c-4.421874 0-8-3.574219-8-8v-80.015625c0-4.425781 3.578126-8 8-8 4.425782 0 8 3.574219 8 8v80.015625c0 4.425781-3.574218 8-8 8zm0 0"/></g><path d="m421.558594 34.3125c-3.125-3.128906-8.183594-3.128906-11.3125 0l-26.316406 26.34375-10.265626-10.265625c-3.128906-3.125-8.183593-3.125-11.3125 0-3.128906 3.128906-3.128906 8.183594 0 11.3125l15.921876 15.921875c1.558593 1.558594 3.605468 2.34375 5.65625 2.34375 2.046874 0 4.09375-.785156 5.65625-2.34375l31.972656-32c3.128906-3.121094 3.128906-8.191406 0-11.3125zm0 0" fill="#f5f7fa"/><path d="m216.015625 350.558594.144531-.160156 11.917969-14.398438-20.078125-8-19.839844 8 12 14.558594zm0 0" fill="#ed5565"/><path d="m408 416h-16c-4.398438 0-11.601562 0-16 0h-24c-4.398438 0-11.601562 0-16 0h-87.839844c-4.398437 0-9.800781 0-12 0-2.199218 0-5.800781 0-8 0-2.199218 0-7.601562 0-12 0h-16.082031c-4.398437 0-9.796875 0-12 0-2.199219 0-5.796875 0-8 0-2.199219 0-7.597656 0-12 0h-88.078125c-4.398438 0-11.601562 0-16 0h-24c-4.398438 0-11.601562 0-16 0h-16c-4.398438 0-8 3.601562-8 8v32h40 16 304 16 40v-32c0-4.398438-3.601562-8-8-8zm0 0" fill="#656d78"/><path d="m363.289062 315.367188c-6.242187 6.242187-16.320312 6.242187-22.5625 0l-8-8c-6.320312-6.238282-6.320312-16.398438 0-22.640626 6.242188-6.238281 16.320313-6.238281 22.5625 0l8 8c6.320313 6.242188 6.320313 16.402344 0 22.640626zm0 0" fill="#656d78"/><path d="m83.273438 284.726562c6.320312 6.242188 6.320312 16.402344 0 22.640626l-8 8c-6.242188 6.242187-16.320313 6.242187-22.5625 0-6.320313-6.238282-6.320313-16.398438 0-22.640626l8-8c6.242187-6.238281 16.320312-6.238281 22.5625 0zm0 0" fill="#656d78"/></svg>