<svg height="512pt" viewBox="0 0 512 512" width="512pt" xmlns="http://www.w3.org/2000/svg"><path d="m388.898438 7.199219c-2.996094-4.5-7.796876-7.199219-12.898438-7.199219h-120c-5.097656 0-9.902344 2.699219-12.898438 7.199219-2.703124 4.199219-2.703124 9.902343-.601562 14.398437l30 62c2.699219 5.101563 7.800781 8.402344 13.5 8.402344h60c5.699219 0 10.800781-3.300781 13.5-8.402344l30-62c2.101562-4.496094 2.101562-10.199218-.601562-14.398437zm0 0" fill="#25d9f8"/><path d="m346 92h-30v-92h60c5.097656 0 9.902344 2.699219 12.898438 7.199219 2.703124 4.199219 2.703124 9.902343.601562 14.398437l-30 62c-2.699219 5.101563-7.800781 8.402344-13.5 8.402344zm0 0" fill="#00c0f1"/><path d="m274.839844 296.433594c-2.257813 0-4.542969-.511719-6.695313-1.582032l-48.855469-24.433593c-7.410156-3.707031-10.414062-12.714844-6.707031-20.128907 3.722657-7.425781 12.699219-10.414062 20.128907-6.707031l48.851562 24.433594c7.410156 3.707031 10.414062 12.714844 6.707031 20.128906-2.636719 5.257813-7.921875 8.289063-13.429687 8.289063zm0 0" fill="#47568c"/><path d="m105 482h-15c-49.628906 0-90-40.371094-90-90s40.371094-90 90-90l181 .027344c8.289062 0 15 6.726562 15 15 0 8.292968-6.722656 14.972656-15 14.972656l-181-.027344c-33.089844 0-60 26.9375-60 60.027344s26.910156 60 60 60h15c8.289062 0 15 6.710938 15 15s-6.710938 15-15 15zm0 0" fill="#47568c"/><path d="m196 482h-30c-8.289062 0-15-6.710938-15-15s6.710938-15 15-15h30c8.289062 0 15 6.710938 15 15s-6.710938 15-15 15zm0 0" fill="#47568c"/><path d="m452.015625 332c-.03125 0-.058594 0-.074219 0l-90.957031-.042969c-8.289063 0-15-6.621093-15-14.898437 0-8.289063 6.726563-15 15-15l90.988281.042968h.027344c7.996094 0 15.484375-3.089843 21.121094-8.714843 5.730468-5.726563 8.878906-13.402344 8.878906-21.605469 0-8-3.121094-15.511719-8.773438-21.152344-5.640624-5.640625-13.140624-8.730468-21.109374-8.730468-.015626 0-.042969 0-.070313 0-25.035156.058593-49.574219 9.84375-67.273437 27.539062l-19.128907 19.132812c-5.859375 5.859376-15.351562 5.859376-21.210937 0-5.859375-5.859374-5.859375-15.351562 0-21.210937l19.128906-19.132813c23.335938-23.347656 55.390625-36.238281 88.410156-36.328124h.144532c15.980468 0 30.980468 6.210937 42.289062 17.492187 11.355469 11.304687 17.59375 26.363281 17.59375 42.390625 0 16.230469-6.285156 31.433594-17.679688 42.832031-11.296874 11.277344-26.324218 17.386719-42.304687 17.386719zm0 0" fill="#2c3b73"/><path d="m376 318.800781-15.601562 61.800781h-88.796876l-15.601562-61.800781c-4.800781-18.601562-.601562-37.800781 11.398438-53.101562 11.703124-15 30-22.5 48.601562-22.5s36.898438 7.5 48.601562 22.5c12 15.300781 16.199219 34.5 11.398438 53.101562zm0 0" fill="#e0f4ff"/><path d="m376 318.800781-15.601562 61.800781h-44.398438v-137.402343c18.601562 0 36.898438 7.5 48.601562 22.5 12 15.300781 16.199219 34.5 11.398438 53.101562zm0 0" fill="#bbdcff"/><g fill="#25d9f8"><path d="m136 512c-24.8125 0-46-20.1875-46-45s21.1875-45 46-45 45 20.1875 45 45-20.1875 45-45 45zm0 0"/><path d="m346 152c0 16.5-13.5 30-30 30s-30-13.5-30-30 13.5-30 30-30 30 13.5 30 30zm0 0"/><path d="m346 212c0 16.5-13.5 30-30 30s-30-13.5-30-30 13.5-30 30-30 30 13.5 30 30zm0 0"/></g><path d="m316 242v-60c16.5 0 30 13.5 30 30s-13.5 30-30 30zm0 0" fill="#00c0f1"/><path d="m316 182v-60c16.5 0 30 13.5 30 30s-13.5 30-30 30zm0 0" fill="#00c0f1"/><path d="m390.398438 460.097656c19.5-13.796875 30.601562-32.699218 30.601562-53.097656 0-46.5-50.097656-45.199219-93-44.898438 0 0-6 0-12 0h-11.699219c-42-.300781-93.300781-1.601562-93.300781 44.898438 0 20.398438 11.101562 39.300781 30.601562 53.097656l-26.101562 26.402344c-4.5 4.199219-5.699219 10.5-3.300781 16.199219 2.402343 5.699219 7.800781 9.300781 13.800781 9.300781h180c6 0 11.398438-3.601562 13.800781-9.300781 2.398438-5.699219 1.199219-12-3.300781-16.199219zm0 0" fill="#25d9f8"/><path d="m416.5 486.5c4.5 4.199219 5.699219 10.5 3.300781 16.199219-2.402343 5.699219-7.800781 9.300781-13.800781 9.300781h-90v-149.898438h12c42.902344-.300781 93-1.601562 93 44.898438 0 20.398438-11.101562 39.300781-30.601562 53.097656zm0 0" fill="#00c0f1"/><path d="m451 77c0 24.898438-20.097656 45-45 45h-180c-24.902344 0-45-20.101562-45-45 0-8.402344 6.597656-15 15-15h240c8.402344 0 15 6.597656 15 15zm0 0" fill="#47568c"/><path d="m451 77c0 24.898438-20.097656 45-45 45h-90v-60h120c8.402344 0 15 6.597656 15 15zm0 0" fill="#2c3b73"/></svg>