<svg height="511pt" viewBox="1 1 511 511.99975" width="511pt" xmlns="http://www.w3.org/2000/svg"><path d="m327.890625 327.390625c-5.855469 5.859375-5.855469 15.355469 0 21.214844l36.074219 36.074219c5.859375 5.855468 15.355468 5.855468 21.214844 0 5.859374-5.859376 5.859374-15.355469 0-21.214844l-36.074219-36.074219c-5.859375-5.859375-15.355469-5.859375-21.214844 0zm0 0" fill="#fd1f47"/><path d="m349.109375 327.390625 36.066406 36.066406c5.863281 5.863281 5.855469 15.359375 0 21.214844l-57.28125-57.28125c5.855469-5.855469 15.351563-5.863281 21.214844 0zm0 0" fill="#fe4a60"/><path d="m372.46875 371.964844c-19.167969 19.167968-19.167969 50.246094 0 69.414062l56.242188 56.246094c19.167968 19.167969 50.246093 19.167969 69.414062 0s19.167969-50.246094 0-69.414062l-56.246094-56.246094c-19.164062-19.167969-50.242187-19.167969-69.410156 0zm0 0" fill="#fe4a60"/><path d="m441.882812 371.964844 56.242188 56.242187c19.167969 19.171875 19.164062 50.25 0 69.410157l-125.652344-125.652344c3.695313-3.695313 7.839844-6.679688 12.257813-8.949219 18.464843-9.496094 41.679687-6.519531 57.152343 8.949219zm0 0" fill="#ff7579"/><path d="m59.011719 58.511719c-78.015625 78.019531-78.015625 204.511719 0 282.527343 78.019531 78.019532 204.511719 78.019532 282.527343 0 78.019532-78.015624 78.019532-204.507812 0-282.527343-78.015624-78.015625-204.507812-78.015625-282.527343 0zm0 0" fill="#ffb826"/><path d="m59.011719 58.507812 282.535156 282.535157c4.984375-4.984375 9.660156-10.171875 14.003906-15.539063 63.6875-78.457031 59.007813-193.964844-14.011719-266.988281-78.015624-78.011719-204.511718-78.023437-282.527343-.007813zm0 0" fill="#ffcc4b"/><path d="m320.304688 79.746094c-66.289063-66.292969-173.769532-66.292969-240.0625 0-66.289063 66.289062-66.289063 173.769531 0 240.0625 66.292968 66.289062 173.773437 66.289062 240.0625 0 66.292968-66.292969 66.292968-173.773438 0-240.0625zm0 0" fill="#d9e4ef"/><path d="m119.933594 136.566406h-32.132813c-8.285156 0-15 6.714844-15 15s6.714844 15 15 15h17.132813v57.300782c0 5.015624-4.082032 9.097656-9.101563 9.097656-5.015625 0-9.097656-4.082032-9.097656-9.097656 0-8.285157-6.71875-15-15-15-8.285156 0-15 6.714843-15 15 0 21.558593 17.539063 39.097656 39.097656 39.097656 21.5625 0 39.101563-17.539063 39.101563-39.097656v-72.300782c0-8.285156-6.714844-15-15-15zm0 0" fill="#1d9cfd"/><path d="m320.308594 319.808594-124.316406-124.320313-.363282-.367187-115.378906-115.382813c66.289062-66.277343 173.78125-66.277343 240.058594 0 66.300781 66.300781 66.300781 173.769531 0 240.070313zm0 0" fill="#eff6fe"/><path d="m343.800781 175.667969c0-21.597657-17.480469-39.097657-39.101562-39.097657h-32.128907c-8.289062 0-15 6.710938-15 15v96.398438c0 8.28125 6.710938 15 15 15h32.128907c21.601562 0 39.101562-17.480469 39.101562-39.097656 0-8.863282-2.929687-17.25-8.320312-24.101563 5.390625-6.859375 8.320312-15.25 8.320312-24.101562zm-39.101562 57.300781h-17.128907v-18.199219h17.128907c5.03125 0 9.101562 4.058594 9.101562 9.101563 0 5.019531-4.070312 9.097656-9.101562 9.097656zm0-48.199219h-17.128907v-18.199219h17.128907c5.019531 0 9.101562 4.050782 9.101562 9.097657 0 5.023437-4.070312 9.101562-9.101562 9.101562zm0 0" fill="#3ab4fb"/><path d="m196.234375 136.566406c-23.8125 0-43.101563 19.265625-43.101563 43.101563v40.199219c0 23.773437 19.21875 43.097656 43.132813 43.097656 23.808594 0 43.101563-19.261719 43.101563-43.097656v-40.199219c0-23.777344-19.21875-43.101563-43.132813-43.101563zm13.132813 83.300782c0 7.195312-5.800782 13.097656-13.132813 13.097656-7.238281 0-13.101563-5.851563-13.101563-13.097656v-40.199219c0-7.195313 5.800782-13.101563 13.132813-13.101563 7.238281 0 13.101563 5.855469 13.101563 13.101563zm0 0" fill="#1d9cfd"/><path d="m196.230469 136.570312c-16.03125 0-30.011719 8.730469-37.441407 21.710938l24.339844 24.339844v-2.953125c0-7.199219 5.800782-13.097657 13.140625-13.097657 7.230469 0 13.101563 5.847657 13.101563 13.097657v29.203125l26.949218 26.949218c1.96875-4.929687 3.050782-10.3125 3.050782-15.949218v-40.203125c0-23.777344-19.222656-43.097657-43.140625-43.097657zm0 0" fill="#3ab4fb"/></svg>