<svg height="508pt" viewBox="0 -2 508 508" width="508pt" xmlns="http://www.w3.org/2000/svg"><path d="m319.984375 343.835938-18.558594-9.761719c-24.640625 21.121093-51.761719 33.761719-73.441406 33.761719s-48.800781-12.640626-73.441406-33.761719l-18.558594 9.761719c-79.542969 56.871093-135.984375 40-135.984375 112v47.988281h455.96875s0-15.988281 0-47.988281c0-72-56.441406-55.128907-135.984375-112zm0 0" fill="#545c66"/><path d="m228 352.289062-84-48v24.007813l18.9375 68.183594 65.054688-28.183594 65.480468 27.386719 18.519532-67.386719v-24.007813zm0 0" fill="#f5f7fa"/><path d="m227.984375 367.546875 64.589844 27.765625-33.75 108.511719h-61.671875l-33.511719-107.644531zm0 0" fill="#e6e9ed"/><path d="m239.976562 407.546875h-23.984374l-21.089844-24.914063 33.082031-15.085937 33.085937 14.582031zm0 0" fill="#ed5565"/><path d="m255.984375 503.824219h-56v-56.277344l16.007813-40h23.984374l16.007813 40zm0 0" fill="#da4453"/><path d="m275.984375 503.824219h-17.160156l53.167969-175.527344 44.113281 37.753906-44.128907 57.496094 16.007813 15.992187zm0 0" fill="#656d78"/><path d="m179.984375 503.824219h17.167969l-53.175782-175.527344-44.113281 37.753906 44.128907 57.496094-16.007813 15.992187zm0 0" fill="#656d78"/><path d="m367.183594 175.546875v16c0 91.597656-86.71875 168-140 168-3.359375 0-6.800782-.320313-10.328125-.878906-53.441407-8.722657-129.671875-81.273438-129.671875-167.121094v-16l33.441406-57.441406s55.046875 22.96875 105.4375 22.96875c50.328125 0 106-22.96875 106-22.96875zm0 0" fill="#f0c7b7"/><path d="m301.03125 60.59375s85.921875-11.917969 66.160156 114.953125l-35.128906-57.441406s-55.671875 22.96875-106 22.96875c-50.390625 0-105.4375-22.96875-105.4375-22.96875l-33.441406 57.441406c-20-213.359375 236.878906-172.394531 236.878906-172.394531-37.589844 15.441406-23.03125 57.441406-23.03125 57.441406zm0 0" fill="#965353"/><path d="m456 419.808594c-.382812 0-.785156-.054688-1.167969-.167969-2.113281-.648437-3.296875-2.878906-2.65625-5l22-72.015625c.648438-2.109375 2.855469-3.304688 5-2.65625 2.113281.648438 3.296875 2.882812 2.65625 5l-22 72.015625c-.535156 1.714844-2.121093 2.824219-3.832031 2.824219zm0 0" fill="#edab37"/><path d="m504 419.808594c-1.710938 0-3.296875-1.109375-3.832031-2.832032l-22-72.015624c-.640625-2.117188.542969-4.351563 2.65625-5 2.128906-.640626 4.351562.554687 5 2.65625l22 72.015624c.640625 2.121094-.542969 4.351563-2.65625 5-.382813.121094-.785157.175782-1.167969.175782zm0 0" fill="#edab37"/><path d="m504 411.800781h-48c-2.207031 0-4 1.792969-4 4 0 15.441407 12.558594 28 28 28s28-12.558593 28-28c0-2.207031-1.792969-4-4-4zm0 0" fill="#ffce54"/><path d="m313.976562 419.808594c-.382812 0-.785156-.054688-1.167968-.167969-2.113282-.648437-3.296875-2.878906-2.65625-5l22-72.015625c.648437-2.109375 2.855468-3.304688 5-2.65625 2.113281.648438 3.296875 2.882812 2.65625 5l-22 72.015625c-.535156 1.714844-2.121094 2.824219-3.832032 2.824219zm0 0" fill="#edab37"/><path d="m361.976562 419.808594c-1.710937 0-3.296874-1.109375-3.832031-2.832032l-22-72.015624c-.640625-2.117188.542969-4.351563 2.65625-5 2.128907-.640626 4.351563.554687 5 2.65625l22 72.015624c.640625 2.121094-.542969 4.351563-2.65625 5-.382812.121094-.785156.175782-1.167969.175782zm0 0" fill="#edab37"/><path d="m399.992188 347.808594h-64.015626c-2.207031 0-4-1.789063-4-4 0-2.207032 1.792969-4 4-4h64.015626c2.207031 0 4 1.792968 4 4 0 2.210937-1.792969 4-4 4zm0 0" fill="#f6bb42"/><path d="m482 347.808594h-66.023438c-2.207031 0-4-1.789063-4-4 0-2.207032 1.792969-4 4-4h66.023438c2.207031 0 4 1.792968 4 4 0 2.210937-1.792969 4-4 4zm0 0" fill="#f6bb42"/><path d="m361.976562 411.800781h-48c-2.207031 0-4 1.792969-4 4 0 15.441407 12.558594 28 28 28 15.4375 0 28-12.558593 28-28 0-2.207031-1.792968-4-4-4zm0 0" fill="#ffce54"/><path d="m407.984375 491.824219c-2.207031 0-4-1.789063-4-4v-160.046875c0-2.207032 1.792969-4 4-4s4 1.792968 4 4v160.046875c0 2.210937-1.792969 4-4 4zm0 0" fill="#f6bb42"/><g fill="#ffce54"><path d="m407.984375 331.808594c6.589844 0 12 5.410156 12 12 0 6.59375-5.410156 12-12 12-6.59375 0-12-5.40625-12-12 0-6.589844 5.40625-12 12-12zm0 0"/><path d="m455.984375 495.824219v8h-96v-8c0-4.398438 3.601563-8 8-8h80c4.398437 0 8 3.601562 8 8zm0 0"/></g></svg>