<svg height="512" viewBox="0 0 512 512" width="512" xmlns="http://www.w3.org/2000/svg"><path d="m421.953 304.471-71.937-8.992a16 16 0 0 1 -14.016-15.879v-39.6h-80v39.616a15.972 15.972 0 0 1 -13.992 15.857c-17.185 2.145-47.121 5.883-72.006 8.992a47.945 47.945 0 0 0 -42 47.58v111.955a24 24 0 0 0 24 24h287.998a24 24 0 0 0 24-24v-111.9a48 48 0 0 0 -42.047-47.629z" fill="#fec9a3"/><path d="m421.954 304.471-70.428-8.8a61.493 61.493 0 0 1 -108.5-.417c-.337.065-.654.178-1 .221-17.179 2.144-47.113 5.882-72 8.992a47.952 47.952 0 0 0 -42.026 47.6v111.938a24 24 0 0 0 24 24h288a24 24 0 0 0 24-24v-111.905a48 48 0 0 0 -42.046-47.629z" fill="#f35244"/><path d="m464 352.1a48 48 0 0 0 -33.109-45.615c-66.7 97.963-171.416 153.515-242.245 181.515h251.354a24 24 0 0 0 24-24z" fill="#ea4a3b"/><path d="m145.53 218.94-45.49 18.21-21.59-28.66-38.45-51.07 20.63-77.42 60.07 35.02 10.28 5.99z" fill="#e0e0de"/><path d="m145.53 218.94-45.49 18.21-21.59-28.66c15.41-24.57 30.32-55.33 42.25-93.47l10.28 5.99z" fill="#d6d6d4"/><path d="m82.957 162.707a15.732 15.732 0 0 0 0 12.246 16.313 16.313 0 0 0 21.047 8.7 15.981 15.981 0 0 0 8.879-8.714 15.724 15.724 0 0 0 -.008-12.243 16.15 16.15 0 0 0 -12.911-9.658l-27.852-66.338-11.487-6.7-3.368 12.642 27.9 66.438a15.908 15.908 0 0 0 -2.2 3.627z" fill="#a3a3a1"/><path d="m160.694 212.87-75.816 30.345 12.432 29.609 75.815-30.345z" fill="#ffb531"/><path d="m261.735 450.343c-7.277-24.191-15.284-48.176-24.186-71.844-17.657-46.947-38.89-92.641-64.424-136.02l-75.815 30.345c20.879 77.723 46.111 145.509 87.118 215.176h87.572c-1.536-11-6.6-25.489-10.265-37.657z" fill="#3d4d63"/><path d="m136.477 317.172q-2.578-7.7-5.012-15.449l15.265-4.789q2.385 7.6 4.918 15.16z" fill="#4c5d72"/><path d="m179.414 422.156a875.4 875.4 0 0 1 -37.644-89.648l15.078-5.36a858.953 858.953 0 0 0 36.949 88z" fill="#4c5d72"/><path d="m160.693 212.87-28.075 11.237 12.651 29.521 27.856-11.149z" fill="#ffa912"/><path d="m261.735 450.343c-7.277-24.191-15.284-48.176-24.186-71.844-17.657-46.947-38.89-92.641-64.424-136.02l-22.925 9.176c52.024 86.108 82.905 183.161 96.845 236.345h24.955c-1.536-11-6.6-25.489-10.265-37.657z" fill="#374559"/><path d="m368 392-240 24v48a24 24 0 0 0 24 24h44.274a23.993 23.993 0 0 0 7.277-1.13l164.449-52.325 56-10.545 40 16v-64l-48-8z" fill="#feb784"/><path d="m224 392 240 24v48a24 24 0 0 1 -24 24h-44.274a23.993 23.993 0 0 1 -7.277-1.13l-164.449-52.325-56-10.545-40 16v-64l48-8z" fill="#fec9a3"/><path d="m298.173 288a60.265 60.265 0 0 0 37.827-13.388v-34.612h-80v34.612a60.264 60.264 0 0 0 37.827 13.388z" fill="#feb784"/><path d="m384.08 139.59-24.08 84.41h-128c-14.67-24.15-18.08-31.56-23.12-50.36-7.35-27.42-17.25-55.36-15.78-84.12 1.15-22.44 12.53-47.47 38.9-47.47l29.35-11.49a94 94 0 0 1 13.3-4.11 95.13 95.13 0 0 1 79.94 17.63c1.68 1.32 3.31 2.68 4.88 4.1 25.26 22.73 33.94 58.73 24.61 91.41z" fill="#7a432a"/><path d="m384.08 139.59-24.08 84.41h-33.78a72.715 72.715 0 0 0 1.78-16v-112a72.03 72.03 0 0 0 -53.35-69.55 95.13 95.13 0 0 1 79.94 17.63c1.68 1.32 3.31 2.68 4.88 4.1 25.26 22.73 33.94 58.73 24.61 91.41z" fill="#743b20"/><path d="m376 136h-8v48h8a24 24 0 0 0 0-48z" fill="#feb784"/><path d="m216.4 136h-.4a24 24 0 0 0 0 48h8v-48z" fill="#feb784"/><path d="m368 104v87.34a86.785 86.785 0 0 1 -31.23 66.69 60.288 60.288 0 0 1 -38.6 13.97h-4.34c-1.51 0-3.01-.06-4.5-.17a60.257 60.257 0 0 1 -34.1-13.8 86.8 86.8 0 0 1 -31.23-66.69v-55.34a95.3 95.3 0 0 0 16-52.84v-19.16h16.68c30.56 0 47.32 40 71.32 40z" fill="#fec9a3"/><path d="m368 104v87.34a86.785 86.785 0 0 1 -31.23 66.69 60.288 60.288 0 0 1 -38.6 13.97h-4.34c-1.51 0-3.01-.06-4.5-.17a71.993 71.993 0 0 0 38.67-63.83v-104z" fill="#fec093"/><path d="m311.477 224c-2.415 0-4.848-.059-7.219-.18-2.078-.1-4.25-.156-6.434-.156h-3.648c-2.184 0-4.356.051-6.426.156a129.411 129.411 0 0 1 -23.727-.871l-1.234-.191 2.422-15.813 1.223.188a114.266 114.266 0 0 0 20.5.711c2.329-.121 4.774-.18 7.239-.18h3.648c2.465 0 4.91.059 7.246.18a113.608 113.608 0 0 0 20.508-.715l1.211-.184 2.422 15.813-1.223.187a115.847 115.847 0 0 1 -16.508 1.055z" fill="#f7a468"/><rect fill="#e0e0de" height="32" rx="9.6" width="56" x="312" y="136"/><rect fill="#e0e0de" height="32" rx="9.6" width="56" x="224" y="136"/><path d="m358.4 128h-36.8a17.577 17.577 0 0 0 -14.719 8h-21.764a17.577 17.577 0 0 0 -14.719-8h-36.798a17.62 17.62 0 0 0 -17.6 17.6v12.8a17.62 17.62 0 0 0 17.6 17.6h36.8a17.62 17.62 0 0 0 17.6-17.6v-6.4h16v6.4a17.62 17.62 0 0 0 17.6 17.6h36.8a17.62 17.62 0 0 0 17.6-17.6v-12.8a17.62 17.62 0 0 0 -17.6-17.6zm-86.4 30.4a1.6 1.6 0 0 1 -1.6 1.6h-36.8a1.6 1.6 0 0 1 -1.6-1.6v-12.8a1.6 1.6 0 0 1 1.6-1.6h36.8a1.6 1.6 0 0 1 1.6 1.6zm88 0a1.6 1.6 0 0 1 -1.6 1.6h-36.8a1.6 1.6 0 0 1 -1.6-1.6v-12.8a1.6 1.6 0 0 1 1.6-1.6h36.8a1.6 1.6 0 0 1 1.6 1.6z" fill="#7a432a"/></svg>