<svg id="Layer_1" enable-background="new 0 0 256 256" height="512" viewBox="0 0 256 256" width="512" xmlns="http://www.w3.org/2000/svg"><path d="m152 122c-3.842-3.842-6-9.052-6-14.485v-27.515h-96v27.515c0 5.433-2.158 10.644-6 14.485s-6 9.052-6 14.485h120c0-5.433-2.158-10.643-6-14.485z" fill="#89aadb"/><path d="m158 139.485h-120c-1.657 0-3-1.343-3-3 0-6.273 2.443-12.171 6.879-16.606 3.303-3.303 5.121-7.694 5.121-12.364v-27.515c0-1.657 1.343-3 3-3h96c1.657 0 3 1.343 3 3v27.515c0 4.67 1.818 9.062 5.121 12.364 4.436 4.436 6.879 10.333 6.879 16.606 0 1.657-1.343 3-3 3zm-116.745-6h113.49c-.606-3.529-2.282-6.78-4.866-9.364-4.436-4.436-6.879-10.333-6.879-16.606v-24.515h-90v24.515c0 6.273-2.443 12.171-6.879 16.606-2.584 2.585-4.26 5.835-4.866 9.364z" fill="#1c2d6b"/><path d="m98 116c9.941 0 18 26.863 18 60v2.829c0 9.714-1.158 19.029-3.218 25.898l-.382 1.273v18h33.6v-18l1.272-1.273c6.868-6.869 10.727-16.185 10.728-25.898v-2.829c0-33.137-26.863-60-60-60z" fill="#e8383b"/><path d="m83.218 204.727c-2.06-6.869-3.218-16.186-3.218-25.901v-2.826c0-33.137 8.059-60 18-60-33.137 0-60 26.863-60 60v2.827c0 9.715 3.859 19.031 10.728 25.901l1.272 1.272v18h33.6v-18z" fill="#ef7f72"/><path d="m112.782 204.727c2.06-6.869 3.218-16.185 3.218-25.898v-2.829c0-33.137-8.059-60-18-60s-18 26.863-18 60v2.827c0 9.715 1.158 19.031 3.218 25.901l.382 1.272v18h28.8v-18z" fill="#e95947"/><path d="m122.035 206 1.272-1.273c6.869-6.87 10.728-16.186 10.728-25.901v-16.89c0-7.039 4.568-13 10.898-15.11-1.778 2.11-3.062 8.071-3.062 15.109v16.89c0 17.004-11.44 27.174-11.44 27.174v18h-8.396z" fill="#d3ba2a"/><path d="m137.164 206s11.44-10.959 11.44-27.171v-2.829c0-10.764-.803-20.85-2.198-29.584 1.142-.261 2.326-.413 3.547-.414 5.109 8.826 8.047 19.066 8.047 29.998v2.829c-.001 9.714-3.859 19.029-10.728 25.898l-1.272 1.273v18h-8.836z" fill="#ede49d"/><path d="m148.604 178.829c0 16.213-11.44 27.171-11.44 27.171v18h-6.734v-18s11.44-10.169 11.44-27.174v-16.89c0-7.038 1.283-12.999 3.062-15.109.481-.16.973-.297 1.474-.412 1.395 8.734 2.198 18.82 2.198 29.584z" fill="#eee045"/><rect fill="#65bc49" height="0" width="6.734" x="130.431" y="224"/><path d="m92 134v-15.249c1.894-1.785 3.909-2.751 6-2.751-6.272 0-12.317.966-18 2.751v15.249c0 9.941 8.059 18 18 18-3.314 0-6-8.059-6-18z" fill="#ede49d"/><path d="m98 116c2.091 0 4.106.966 6 2.751v15.249c0 9.941-2.686 18-6 18 9.941 0 18-8.059 18-18v-15.249c-5.683-1.785-11.728-2.751-18-2.751z" fill="#d3ba2a"/><path d="m104 134v-15.249c-1.894-1.785-3.909-2.751-6-2.751-2.091 0-4.106.966-6 2.751v15.249c0 9.941 2.686 18 6 18s6-8.059 6-18z" fill="#eee045"/><g fill="#1c2d6b"><path d="m98 155c-11.579 0-21-9.42-21-21v-15.249c0-1.311.851-2.469 2.101-2.862 12.205-3.833 25.594-3.833 37.799 0 1.25.393 2.101 1.552 2.101 2.862v15.249c-.001 11.58-9.422 21-21.001 21zm-15-34.002v13.002c0 8.271 6.729 15 15 15s15-6.729 15-15v-13.002c-9.744-2.653-20.256-2.653-30 0z"/><path d="m146 227h-96c-1.657 0-3-1.343-3-3v-16.757l-.394-.394c-7.484-7.485-11.606-17.437-11.606-28.022v-2.827c0-34.738 28.262-63 63-63s63 28.262 63 63v2.829c-.001 10.584-4.123 20.535-11.606 28.02l-.394.394v16.757c0 1.657-1.343 3-3 3zm-93-6h90v-15c0-.795.316-1.559.879-2.121l1.272-1.272c6.35-6.351 9.848-14.796 9.849-23.778v-2.829c0-31.43-25.57-57-57-57s-57 25.57-57 57v2.827c0 8.983 3.498 17.428 9.849 23.78l1.272 1.272c.563.562.879 1.326.879 2.121z"/><path d="m146 227h-23.965c-1.657 0-3-1.343-3-3v-18c0-.795.316-1.559.879-2.121l1.272-1.272c6.351-6.353 9.849-14.798 9.849-23.78v-16.89c0-10.43 8.485-18.924 18.915-18.936h.003c1.07 0 2.061.57 2.597 1.498 5.528 9.552 8.45 20.445 8.45 31.501v2.829c-.001 10.584-4.123 20.535-11.606 28.02l-.394.394v16.757c0 1.657-1.343 3-3 3zm-20.965-6h17.965v-15c0-.795.316-1.559.879-2.121l1.272-1.272c6.35-6.351 9.848-14.796 9.849-23.778v-2.829c0-9.385-2.327-18.641-6.746-26.885-6.323.843-11.219 6.274-11.219 12.822v16.89c0 10.584-4.122 20.536-11.606 28.022l-.394.394zm22.237-16.272h.01z"/></g><path d="m73.983 206-1.272-1.273c-6.869-6.87-10.728-16.186-10.728-25.901v-16.89c0-7.039-4.568-13-10.898-15.11 1.778 2.11 3.062 8.071 3.062 15.109v16.89c0 17.004 11.44 27.174 11.44 27.174v18h8.396z" fill="#d3ba2a"/><path d="m58.853 206s-11.44-10.959-11.44-27.171v-2.829c0-10.764.803-20.85 2.198-29.584-1.142-.261-2.326-.413-3.547-.414-5.108 8.827-8.046 19.067-8.046 29.999v2.829c.001 9.714 3.859 19.029 10.728 25.898l1.271 1.272v18h8.836z" fill="#ede49d"/><path d="m47.413 178.829c0 16.213 11.44 27.171 11.44 27.171v18h6.734v-18s-11.44-10.169-11.44-27.174v-16.89c0-7.038-1.283-12.999-3.062-15.109-.481-.16-.973-.297-1.474-.412-1.395 8.734-2.198 18.82-2.198 29.584z" fill="#eee045"/><rect fill="#65bc49" height="0" width="6.734" x="58.853" y="224"/><path d="m73.982 227h-23.964c-1.657 0-3-1.343-3-3v-16.757l-.394-.394c-7.483-7.484-11.605-17.435-11.606-28.019v-2.83c0-11.055 2.922-21.948 8.449-31.501.536-.927 1.526-1.498 2.597-1.498h.003c10.431.012 18.916 8.506 18.916 18.936v16.89c0 8.982 3.498 17.427 9.849 23.78l1.272 1.272c.562.562.879 1.326.879 2.121v18c-.001 1.657-1.343 3-3.001 3zm-20.964-6h17.965v-13.757l-.394-.394c-7.484-7.486-11.606-17.438-11.606-28.022v-16.89c0-6.548-4.896-11.979-11.22-12.822-4.418 8.245-6.745 17.5-6.745 26.885v2.829c.001 8.981 3.499 17.426 9.849 23.777l1.272 1.272c.562.562.879 1.326.879 2.121z" fill="#1c2d6b"/><path d="m82 80c0-26.51 7.163-48 16-48-26.51 0-48 21.49-48 48s21.49 48 48 48c-8.837 0-16-21.49-16-48z" fill="#ede49d"/><path d="m98 32c8.837 0 16 21.49 16 48s-7.163 48-16 48c26.51 0 48-21.49 48-48s-21.49-48-48-48z" fill="#d3ba2a"/><ellipse cx="98" cy="80" fill="#eee045" rx="16" ry="48"/><circle cx="82" cy="89.943" fill="#1c2d6b" r="3.941"/><circle cx="114" cy="89.943" fill="#1c2d6b" r="3.941"/><path d="m98 105.002c-3.912 0-7.562-2.104-9.523-5.493-.831-1.434-.342-3.269 1.092-4.1 1.436-.83 3.271-.34 4.1 1.093.894 1.542 2.553 2.5 4.332 2.5s3.438-.958 4.332-2.5c.829-1.433 2.663-1.923 4.1-1.093 1.434.831 1.923 2.666 1.092 4.1-1.963 3.388-5.613 5.493-9.525 5.493z" fill="#1c2d6b"/><path d="m98 32c-26.51 0-48 21.49-48 48 12.576 0 24.017-4.843 32.576-12.757 1.863-20.315 8.06-35.243 15.424-35.243z" fill="#89aadb"/><path d="m113.424 67.243c8.559 7.914 20 12.757 32.576 12.757 0-26.51-21.49-48-48-48 7.364 0 13.561 14.928 15.424 35.243z" fill="#4b67b0"/><path d="m98 32c0 13.933 5.942 26.474 15.424 35.243-1.863-20.315-8.06-35.243-15.424-35.243s-13.561 14.928-15.424 35.243c9.482-8.769 15.424-21.31 15.424-35.243z" fill="#6287c5"/><path d="m146 83c-22.073 0-40.915-14.095-48-33.757-7.085 19.662-25.927 33.757-48 33.757-1.657 0-3-1.343-3-3 0-28.122 22.879-51 51-51s51 22.878 51 51c0 1.657-1.343 3-3 3zm-44.894-47.894c1.529 22.345 19.443 40.258 41.787 41.788-1.529-22.345-19.443-40.258-41.787-41.788zm-6.212 0c-22.344 1.53-40.258 19.443-41.787 41.788 22.343-1.53 40.257-19.443 41.787-41.788z" fill="#1c2d6b"/><path d="m98 131c-28.121 0-51-22.878-51-51s22.879-51 51-51 51 22.878 51 51-22.879 51-51 51zm0-96c-24.813 0-45 20.187-45 45s20.187 45 45 45 45-20.187 45-45-20.187-45-45-45z" fill="#1c2d6b"/><path d="m150.702 176v-12-36h-16.702l-24 24 14.839 21.161 9.161-9.161v12l5.999 12-5.999 36h16.702l2.659-36z" fill="#a4d4a0"/><path d="m194 128h-16.702v36 12l-2.66 12 2.66 36h16.702l-6.001-36 6.001-12v-12l9.161 9.161 14.839-21.161z" fill="#419b46"/><path d="m177.298 176v-12-36h-1.298c0 6.627-5.373 12-12 12s-12-5.373-12-12h-1.298v36 12l2.659 12-2.659 36h26.596l-2.66-36z" fill="#65bc49"/><path d="m194 227h-60c-.882 0-1.719-.388-2.289-1.061s-.815-1.562-.67-2.432l5.838-35.038-5.562-11.127c-.209-.417-.317-.876-.317-1.342v-4.757l-4.04 4.04c-.627.627-1.504.938-2.382.868-.883-.077-1.687-.541-2.195-1.267l-14.839-21.161c-.837-1.193-.695-2.814.335-3.844l24-24c.562-.563 1.325-.879 2.121-.879h18c1.657 0 3 1.343 3 3 0 4.962 4.037 9 9 9s9-4.038 9-9c0-1.657 1.343-3 3-3h18c.796 0 1.559.316 2.121.879l24 24c1.03 1.03 1.172 2.651.335 3.844l-14.839 21.161c-.509.726-1.312 1.189-2.195 1.267-.879.071-1.755-.24-2.382-.868l-4.04-4.04v4.757c0 .466-.108.925-.317 1.342l-5.564 11.127 5.841 35.038c.146.87-.1 1.759-.67 2.432s-1.408 1.061-2.29 1.061zm-56.459-6h52.917l-5.419-32.507c-.104-.625-.008-1.268.275-1.835l5.686-11.366v-11.292c0-1.213.73-2.307 1.852-2.771 1.123-.466 2.413-.208 3.27.65l6.635 6.635 11.342-16.174-21.341-21.34h-14.06c-1.394 6.838-7.454 12-14.698 12s-13.305-5.162-14.698-12h-14.06l-21.34 21.34 11.342 16.174 6.635-6.635c.856-.858 2.144-1.116 3.27-.65 1.121.464 1.851 1.558 1.851 2.771v11.292l5.682 11.367c.283.567.38 1.209.275 1.834z" fill="#1c2d6b"/><path d="m164 137c-1.657 0-3-1.343-3-3v-12c0-1.657 1.343-3 3-3h6c1.654 0 3-1.346 3-3v-6c0-1.654-1.346-3-3-3h-6c-1.654 0-3 1.346-3 3 0 1.657-1.343 3-3 3s-3-1.343-3-3c0-4.962 4.037-9 9-9h6c4.963 0 9 4.038 9 9v6c0 4.962-4.037 9-9 9h-3v9c0 1.657-1.343 3-3 3z" fill="#1c2d6b"/><path d="m174.384 137h-20.775c-1.657 0-3-1.343-3-3s1.343-3 3-3h20.775c1.657 0 3 1.343 3 3s-1.343 3-3 3z" fill="#1c2d6b"/></svg>