<svg height="512" viewBox="0 0 512 512" width="512" xmlns="http://www.w3.org/2000/svg"><g id="filled_outline" data-name="filled outline"><path d="m225.752 184 22.248 33.578 22.294-33.441z" fill="#85bc94"/><circle cx="248" cy="104" fill="#99d8aa" r="80"/><path d="m235.647 278.794 62.225-28.284 79.196 79.196-33.941 56.568z" fill="#fdc9a6"/><path d="m100.451 254.794h112v48h-112z" fill="#ebebeb" transform="matrix(.707 -.707 .707 .707 -151.314 192.284)"/><path d="m41.539 199.196h128v80h-128z" fill="#8f563b" transform="matrix(.707 -.707 .707 .707 -138.225 144.686)"/><path d="m330.441 217.137h48v112h-48z" fill="#ebebeb" transform="matrix(.707 -.707 .707 .707 -89.324 330.627)"/><path d="m365.352 169.539h80v128h-80z" fill="#4799cf" transform="matrix(.707 -.707 .707 .707 -46.412 355.029)"/><path d="m336 104a88 88 0 1 0 -124.12 80.241l29.464 44.2a8 8 0 0 0 13.312 0l29.464-44.2a88.124 88.124 0 0 0 51.88-80.241zm-16.455-8h-33.26a114.611 114.611 0 0 0 -8.932-37.17l-10.418-24.285a72.165 72.165 0 0 1 52.61 61.455zm-71.107 79.989c-.147 0-.291.011-.438.011s-.292-.01-.438-.011l-14.208-33.12a98.623 98.623 0 0 1 -7.6-30.869h44.5a98.545 98.545 0 0 1 -7.6 30.863zm-22.686-79.989a98.545 98.545 0 0 1 7.6-30.863l14.209-33.126c.147 0 .291-.011.438-.011s.292.01.438.011l14.208 33.12a98.623 98.623 0 0 1 7.603 30.869zm3.313-61.456-10.419 24.292a114.563 114.563 0 0 0 -8.931 37.164h-33.26a72.167 72.167 0 0 1 52.61-61.456zm-52.61 77.456h33.26a114.611 114.611 0 0 0 8.932 37.17l10.418 24.285a72.165 72.165 0 0 1 -52.61-61.455zm71.545 97.578-12.294-18.441a88 88 0 0 0 24.588 0zm18.935-36.122 10.419-24.292a114.563 114.563 0 0 0 8.931-37.164h33.26a72.167 72.167 0 0 1 -52.61 61.456z" fill="#6b9777"/><path d="m400 83.19a22.162 22.162 0 0 1 -6.5 15.7l-45.11 45.11-6.09-6.09-39.01-39.02a22.175 22.175 0 0 1 -2.78-28 23.611 23.611 0 0 1 32.74-6.55l15.14 10.09 15.14-10.09a23.6 23.6 0 0 1 32.74 6.55 22.149 22.149 0 0 1 3.73 12.3z" fill="#dc4d41"/><path d="m392.73 78.27a22.2 22.2 0 0 1 -6.51 15.71l-43.92 43.93-39.01-39.02a22.175 22.175 0 0 1 -2.78-28 23.611 23.611 0 0 1 32.74-6.55l15.14 10.09 15.14-10.09a23.575 23.575 0 0 1 22.46-2.03 23.95 23.95 0 0 1 3.01 3.66 22.173 22.173 0 0 1 3.73 12.3z" fill="#f55648"/><path d="m213.858 336.165a20 20 0 0 1 0-28.284l25.456-25.456 62.225-28.284 33.941 33.941-22.627 22.627a32 32 0 0 1 -45.255 0l-25.456 25.456a20 20 0 0 1 -28.284 0z" fill="#f6bb92"/><path d="m235.647 278.794 62.225-28.284 33.941 33.941-22.627 22.627a32 32 0 0 1 -45.255 0z" fill="#fdc9a6"/><path d="m348.784 414.558a16 16 0 0 0 0-22.627l-11.314-11.314-124.451-124.45-67.882 67.882v45.251l101.823 101.827 11.314 11.314a16 16 0 0 0 22.628 0 16 16 0 0 0 0-22.628 16 16 0 0 0 22.627 0 16 16 0 0 0 0-22.627 16 16 0 0 0 22.627 0 16 16 0 0 0 0-22.628 16 16 0 0 0 22.628 0z" fill="#eeb58e"/><g fill="#fdc9a6"><rect height="32" rx="16" transform="matrix(.707 -.707 .707 .707 -230.745 272.049)" width="48" x="189.019" y="398.558"/><rect height="32" rx="16" transform="matrix(.707 -.707 .707 .707 -240.118 294.676)" width="48" x="211.647" y="421.186"/><rect height="32" rx="16" transform="matrix(.707 -.707 .707 .707 -212 226.794)" width="48" x="143.765" y="353.304"/><rect height="32" rx="16" transform="matrix(.707 -.707 .707 .707 -221.373 249.421)" width="48" x="166.392" y="375.931"/><path d="m147.48 371.647c-.015.162 86.649 86.649 86.649 86.649l8.245-8.278-87.394-87.673z"/><path d="m263.931 307.078-25.456 25.456a20 20 0 0 1 -28.284 0 20 20 0 0 1 0-28.284l25.456-25.456 14.078-2.922z"/></g><path d="m411.009 307.079 5.657 5.656a8 8 0 0 0 11.314 0l56.569-56.568a8 8 0 0 0 0-11.314l-90.51-90.51a8 8 0 0 0 -11.314 0l-89.483 89.482-55.862 25.391-109.213-109.216a8 8 0 0 0 -11.314 0l-90.51 90.51a8 8 0 0 0 0 11.314l56.568 56.569a8 8 0 0 0 11.315 0l5.656-5.657 28.284 28.284a7.975 7.975 0 0 0 8.974 1.614v26.666a8 8 0 0 0 1.06 3.965 23.932 23.932 0 0 0 6.937 18.666 23.872 23.872 0 0 0 15.671 6.955 23.923 23.923 0 0 0 22.63 22.665 23.878 23.878 0 0 0 6.954 15.634 23.874 23.874 0 0 0 15.67 6.955 23.931 23.931 0 0 0 23.928 22.7c.446 0 .888-.015 1.33-.039l21.292 21.299a24.006 24.006 0 0 0 40.942-15.65 23.986 23.986 0 0 0 22.631-22.631 23.944 23.944 0 0 0 22.615-22.608 24 24 0 0 0 15.633-40.939l-1.237-1.236 30.23-50.377zm-22.627-135.766 79.2 79.2-45.255 45.255-79.2-79.2zm-148.105 114.164 55.857-25.39 24.366 24.365-16.971 16.97a23.994 23.994 0 0 1 -33.856.079l-.043-.042-.2-.189a7.988 7.988 0 0 0 -11.152.148l-25.455 25.456a12 12 0 0 1 -16.969 0 12.014 12.014 0 0 1 0-16.971zm-151.709 15.945-45.255-45.255 79.2-79.2 45.254 45.254zm45.255 22.627-22.623-22.627 67.883-67.882 22.627 22.627zm28.284 58.912a8 8 0 0 1 -5.656-13.657l11.313-11.314a8 8 0 0 1 11.315 11.31l-11.315 11.313a7.949 7.949 0 0 1 -5.657 2.348zm22.628 22.627a8 8 0 0 1 -5.658-13.656l11.316-11.315a8 8 0 1 1 11.312 11.314l-11.313 11.314a7.948 7.948 0 0 1 -5.657 2.343zm22.627 22.628a8 8 0 0 1 -5.656-13.657l11.313-11.314a8 8 0 1 1 11.314 11.313l-11.314 11.314a7.949 7.949 0 0 1 -5.657 2.344zm22.628 22.627a8 8 0 0 1 -5.657-13.656l11.314-11.315a8 8 0 1 1 11.313 11.314l-11.314 11.314a7.944 7.944 0 0 1 -5.656 2.343zm113.129-41.936a7.989 7.989 0 0 1 -11.3 0 8 8 0 0 0 -11.318 11.31l.021.02a8 8 0 0 1 -11.328 11.307l-.014-.016a8 8 0 0 0 -11.3 11.33 7.98 7.98 0 0 1 -.01 11.295 8.007 8.007 0 0 1 -11.315 0 8 8 0 0 0 -11.325 11.3 8 8 0 1 1 -11.306 11.328l-16.968-16.969 11.318-11.312a23.959 23.959 0 0 0 -15.67-40.9 23.851 23.851 0 0 0 -22.592-22.623 23.995 23.995 0 0 0 -22.666-22.668 23.959 23.959 0 0 0 -40.9-15.635l-3.31 3.311v-22.622l59.88-59.88 11.316 11.317-19.8 19.8a28 28 0 1 0 39.6 39.6l19.8-19.8 79.194 79.193a8.012 8.012 0 0 1 -.007 11.314zm-1.58-35.532-49.318-49.325a39.688 39.688 0 0 0 22.621-11.315l16.97-16.969 35.188 35.184zm-32.353-122.866 22.627-22.627 67.887 67.883-22.627 22.628z"/><path d="m211.89 184.257 29.454 44.181a8 8 0 0 0 13.312 0l29.444-44.168a88.172 88.172 0 0 0 45.627-47.618l13 13.005a8 8 0 0 0 11.315 0l45.107-45.106a30.278 30.278 0 0 0 3.772-38.1 31.606 31.606 0 0 0 -43.821-8.769l-10.7 7.134-10.7-7.134a31.416 31.416 0 0 0 -18.408-5.277 88 88 0 1 0 -107.402 131.852zm36.11 25.321-12.294-18.441a88 88 0 0 0 24.588 0zm.438-33.589c-.146 0-.292.011-.438.011s-.292-.01-.438-.011l-14.208-33.12a98.623 98.623 0 0 1 -7.6-30.869h44.5a98.545 98.545 0 0 1 -7.6 30.863zm27.45-5.59-.218.087a71.379 71.379 0 0 1 -8.74 2.98l10.424-24.3a114.563 114.563 0 0 0 8.931-37.166h18.792l12.082 12.082a72.092 72.092 0 0 1 -41.271 46.318zm31.28-95.076a15.629 15.629 0 0 1 21.646-4.33l15.14 10.094a8 8 0 0 0 8.875 0l15.141-10.093a15.609 15.609 0 0 1 21.645 4.329 14.234 14.234 0 0 1 -1.773 17.913l-39.45 39.451-39.45-39.451a14.236 14.236 0 0 1 -1.774-17.913zm-4.219-17.849a31.427 31.427 0 0 0 -9.094 8.973 30.29 30.29 0 0 0 -2.212 29.553h-5.358a114.611 114.611 0 0 0 -8.932-37.17l-10.431-24.316a71.582 71.582 0 0 1 36.027 22.96zm-55.387-25.463c.147 0 .291-.011.438-.011s.291.006.436.007l14.21 33.124a98.623 98.623 0 0 1 7.602 30.869h-44.5a98.545 98.545 0 0 1 7.6-30.863zm-18.5 2.533-10.416 24.292a114.563 114.563 0 0 0 -8.931 37.164h-33.26a72.167 72.167 0 0 1 52.61-61.456zm-19.347 77.456a114.611 114.611 0 0 0 8.932 37.17l10.422 24.3a71.422 71.422 0 0 1 -8.739-2.98l-.218-.087a71.815 71.815 0 0 1 -43.671-58.403z"/></g></svg>