<svg id="flat" height="512" viewBox="0 0 64 64" width="512" xmlns="http://www.w3.org/2000/svg"><path d="m18 34h8v8h-8z" fill="#f2cca0"/><path d="m32 10v16a10 10 0 0 1 -10 10 10 10 0 0 1 -10-10v-16z" fill="#ffd7a8"/><path d="m19 3h5.66386a9.33614 9.33614 0 0 1 9.33614 9.33614v.66386a2 2 0 0 1 -2 2h-11a6 6 0 0 1 -6-6v-2a4 4 0 0 1 4-4z" fill="#626262"/><path d="m14 6a1 1 0 0 1 1 1v6a2 2 0 0 1 -2 2h-2a1 1 0 0 1 -1-1v-4a4 4 0 0 1 4-4z" fill="#555"/><circle cx="17" cy="23" fill="#8c7558" r="1"/><path d="m15 18h4v2h-4z" fill="#626262"/><circle cx="27" cy="23" fill="#8c7558" r="1"/><path d="m25 18h4v2h-4z" fill="#626262"/><path d="m21 25h2v3h-2z" fill="#bf9f78"/><path d="m22 32a7.98713 7.98713 0 0 1 -4.123-1.14355l1.03125-1.7129a6.10485 6.10485 0 0 0 6.1836 0l1.03125 1.7129a7.98713 7.98713 0 0 1 -4.1231 1.14355z" fill="#bf9f78"/><path d="m31 41 6.94257 3.857a4 4 0 0 1 2.05743 3.49661v8.64639h-7v5h-22v-5h-7v-8.64639a4 4 0 0 1 2.05743-3.49661l6.94257-3.857 9 1z" fill="#b39570"/><path d="m21 42h2v15h-2z" fill="#997f60"/><path d="m17.36424 38.90949 4.63576 3.09051-2.36844 3.15792a1 1 0 0 1 -1.44019.16822l-5.19137-4.32614 1.84062-1.84062a2 2 0 0 1 2.52362-.24989z" fill="#ccaa80"/><path d="m26.63576 38.90949-4.63576 3.09051 2.36844 3.15792a1 1 0 0 0 1.44019.16822l5.19137-4.32614-1.84062-1.84062a2 2 0 0 0 -2.52362-.24989z" fill="#ccaa80"/><circle cx="26" cy="54" fill="#997f60" r="1"/><circle cx="26" cy="50" fill="#997f60" r="1"/><path d="m4 57h7v5h-7z" fill="#ffd7a8"/><path d="m33 56h7v6h-7z" fill="#ffd7a8"/><path d="m10 50h2v12h-2z" fill="#a68a68"/><path d="m32 50h2v12h-2z" fill="#a68a68"/><path d="m60.38672 27.38672-4.8009-4.801a2.00016 2.00016 0 0 0 -1.41425-.58572h-11.17157a2 2 0 0 0 -1.6.8l-1.20221 1.6029a5.9891 5.9891 0 0 0 -1.19779 3.59344 4.00347 4.00347 0 0 0 4 4.00329v.00037l.64111 2.56445a4.00033 4.00033 0 0 1 -.30285 2.759l-.916 1.83191a4.00011 4.00011 0 0 0 -.42226 1.78891v.05573a2 2 0 0 0 2 2h8a2 2 0 0 0 2-2v-.50757a3.99824 3.99824 0 0 0 -.11945-.97015l-.56683-2.26752a3.99978 3.99978 0 0 1 .16663-2.45569l1.51965-3.79907v-.8l2.22662 1.336a1 1 0 0 0 1.31452-.25745l1.93847-2.58465a1 1 0 0 0 -.09289-1.30718z" fill="#f38262"/><path d="m48 43h2v14h-2z" fill="#c8c8c8"/><rect fill="#eee" height="4" rx="1" width="16" x="41" y="57"/><path d="m45 22h6a0 0 0 0 1 0 0v1a3 3 0 0 1 -3 3 3 3 0 0 1 -3-3v-1a0 0 0 0 1 0 0z" fill="#eee"/><path d="m47 17h2v5h-2z" fill="#c8c8c8"/><circle cx="48" cy="16" fill="#eee" r="2"/></svg>