<svg height="512pt" viewBox="0 0 512 512" width="512pt" xmlns="http://www.w3.org/2000/svg"><path d="m467 0c-7.261719 0-414.765625 0-422 0-24.8125 0-45 20.1875-45 45v22.855469c0 37.019531 12.734375 73.328125 35.863281 102.234375 19.234375 24.042968 46.59375 42.875 77.039063 53.023437l15.898437 5.296875c18.464844 30.085938 47.425781 53.261719 82.199219 64.269532v23.320312c0 8.269531-6.730469 15-15 15-24.8125 0-45 20.1875-45 45v15h-15c-8.285156 0-15 6.714844-15 15v76h-15c-8.285156 0-15 6.714844-15 15s6.714844 15 15 15h300c8.285156 0 15-6.714844 15-15s-6.714844-15-15-15h-15v-76c0-8.285156-6.714844-15-15-15h-15v-15c0-24.8125-20.1875-45-45-45-8.269531 0-15-6.730469-15-15v-23.320312c34.734375-10.996094 63.667969-34.128907 82.136719-64.167969l16.765625-5.335938c.0625-.019531.128906-.042969.191406-.0625 29.996094-10 56.292969-28.335937 76.042969-53.023437 23.128906-28.90625 35.863281-65.214844 35.863281-102.234375v-22.855469c0-24.8125-20.1875-45-45-45zm-407.710938 151.347656c-18.886718-23.609375-29.289062-53.257812-29.289062-83.492187v-22.855469c0-8.269531 6.730469-15 15-15h47.574219l15.265625 137.390625c.894531 8.035156 2.453125 15.882813 4.585937 23.5-20.976562-8.816406-39.582031-22.601563-53.136719-39.542969zm91.710938 330.652344v-61h210v61zm131.636719-215.382812c-6.8125 1.566406-11.636719 7.628906-11.636719 14.617187v34.765625c0 24.8125 20.1875 45 45 45 8.269531 0 15 6.730469 15 15v15h-150v-15c0-8.269531 6.730469-15 15-15 24.8125 0 45-20.1875 45-45v-34.765625c0-6.988281-4.824219-13.050781-11.636719-14.617187-49.300781-11.34375-86.152343-52.550782-91.707031-102.539063l-14.898438-134.078125h266.484376l-14.898438 134.078125c-5.554688 49.988281-42.40625 91.195313-91.707031 102.539063zm199.363281-198.761719c0 30.234375-10.402344 59.882812-29.289062 83.492187-14.160157 17.703125-32.441407 31.398438-53.269532 40.007813 2.203125-7.765625 3.804688-15.765625 4.71875-23.964844l15.265625-137.390625h47.574219c8.269531 0 15 6.730469 15 15zm0 0"/><path d="m318.105469 102.710938-33.707031-4.78125-15.011719-29.695313c-2.550781-5.050781-7.730469-8.234375-13.386719-8.234375s-10.835938 3.183594-13.386719 8.234375l-15.011719 29.695313-33.710937 4.78125c-5.691406.808593-10.421875 4.800781-12.175781 10.277343-1.753906 5.476563-.222656 11.476563 3.941406 15.4375l24.179688 23.011719-5.691407 32.394531c-.984375 5.609375 1.289063 11.292969 5.871094 14.671875 4.59375 3.382813 10.695313 3.863282 15.75 1.269532l30.234375-15.519532 30.230469 15.519532c5.066406 2.601562 11.167969 2.109374 15.75-1.269532 4.585937-3.382812 6.859375-9.0625 5.875-14.671875l-5.691407-32.394531 24.175782-23.011719c4.167968-3.964843 5.699218-9.960937 3.945312-15.4375-1.753906-5.476562-6.484375-9.46875-12.179687-10.277343zm-42.445313 32.535156c-3.640625 3.464844-5.304687 8.515625-4.433594 13.464844l1.859376 10.59375-10.238282-5.253907c-4.296875-2.207031-9.398437-2.207031-13.699218 0l-10.238282 5.253907 1.863282-10.59375c.867187-4.949219-.796876-10-4.433594-13.464844l-7.550782-7.183594 10.777344-1.53125c4.855469-.6875 9.066406-3.707031 11.277344-8.082031l5.15625-10.199219 5.152344 10.195312c2.214844 4.378907 6.425781 7.398438 11.28125 8.085938l10.777344 1.527344zm0 0"/></svg>