<?xml version="1.0" encoding="iso-8859-1"?>
<!-- Generator: Adobe Illustrator 18.0.0, SVG Export Plug-In . SVG Version: 6.00 Build 0)  -->
<!DOCTYPE svg PUBLIC "-//W3C//DTD SVG 1.1//EN" "http://www.w3.org/Graphics/SVG/1.1/DTD/svg11.dtd">
<svg version="1.1" id="Capa_1" xmlns="http://www.w3.org/2000/svg" xmlns:xlink="http://www.w3.org/1999/xlink" x="0px" y="0px"
	 viewBox="0 0 297 297" style="enable-background:new 0 0 297 297;" xml:space="preserve">
<g>
	<path d="M1.174,129.288c-1.571,3.669-1.565,7.706,0.02,11.366l30.856,71.303h232.902l30.856-71.303
		c1.584-3.661,1.591-7.698,0.02-11.366c-1.579-3.689-4.529-6.486-8.303-7.877c-44.82-16.51-91.93-24.769-139.023-24.769
		c-47.104,0-94.193,8.255-139.023,24.769C5.703,122.802,2.753,125.598,1.174,129.288z"/>
	<path d="M100.293,85.316v-2.341c0-26.581,21.626-48.207,48.207-48.207s48.207,21.626,48.207,48.207v2.341
		c6.752,0.786,13.488,1.742,20.203,2.859v-5.2c0-37.722-30.689-68.411-68.411-68.411S80.089,45.253,80.089,82.975v5.2
		C86.805,87.058,93.541,86.102,100.293,85.316z"/>
	<path d="M38.169,226.1l20.625,47.661c2.281,5.27,7.465,8.675,13.206,8.675h152.999c5.742,0,10.926-3.405,13.207-8.675
		l20.625-47.661H38.169z"/>
</g>
<g>
</g>
<g>
</g>
<g>
</g>
<g>
</g>
<g>
</g>
<g>
</g>
<g>
</g>
<g>
</g>
<g>
</g>
<g>
</g>
<g>
</g>
<g>
</g>
<g>
</g>
<g>
</g>
<g>
</g>
</svg>
