<?xml version="1.0" encoding="iso-8859-1"?>
<!-- Generator: Adobe Illustrator 16.0.0, SVG Export Plug-In . SVG Version: 6.00 Build 0)  -->
<!DOCTYPE svg PUBLIC "-//W3C//DTD SVG 1.1//EN" "http://www.w3.org/Graphics/SVG/1.1/DTD/svg11.dtd">
<svg version="1.1" id="Capa_1" xmlns="http://www.w3.org/2000/svg" xmlns:xlink="http://www.w3.org/1999/xlink" x="0px" y="0px"
	 width="465.734px" height="465.734px" viewBox="0 0 465.734 465.734" style="enable-background:new 0 0 465.734 465.734;"
	 xml:space="preserve">
<g>
	<g>
		<path d="M335.408,423.062c0-1.113-0.008-2.224-0.017-3.35c-8.443,1.799-22.81,4.268-38.607,4.268
			c-30.753,0-52.341-9.186-63.912-26.77c-11.571,17.584-33.153,26.77-63.895,26.77c-0.008,0,0,0-0.008,0
			c-14.93,0-28.551-2.192-37.133-3.963c-0.172,2.224-0.353,4.564-0.517,6.969c0.194,0.737,0.387,1.61,0.567,2.3
			c2.04,7.558,3.124,13.341-1.579,18.17c-0.032,2.501-0.008,4.692,0.126,6.315c0.878,11.277,62.416,11.718,75.166,11.718
			c12.75,0,24.179-1.759,59.338,0c35.165,1.764,68.575-6.151,69.894-18.025c0.016-0.16,0.032-0.4,0.048-0.577
			c-4.079-4.705-2.978-10.331-1.014-17.601C334.37,427.422,334.907,425.298,335.408,423.062z"/>
		<path d="M241.342,156.944c-1.936,7.725-3.69,15.777-5.271,24.093c0.437,2.322,0.848,4.689,1.252,7.049
			c8.772-15.513,36.111-73.989,37.962-79.006c2.309-6.272,12.805-33.552,18.134-42.429c2.737-4.562,3.358-6.885,3.487-7.796
			l-14.183-13.433l13.377-5.109c2.953-7.907-3.227-16.37-5.579-19.204c-5.021-2.976-9.697-7.081-12.651-12.984
			c-1.538-3.086-3.435-5.819-5.313-8.095c1.659,20.122-9.782,71.424-30.08,152.415L241.342,156.944z"/>
		<path d="M350.047,42.509c-3.102-0.622-6.62-1.311-9.918-3.603c-7.161-4.953-22.073-8.674-27.691-10.081l-2.016-0.469
			c-2.393-0.543-5.851-1.361-9.638-2.621c2.348,5.202,3.694,11.822,0.484,18.414l-0.537,1.116l-6.479,2.473l7.79,7.41
			c2.176,2.897,0.966,7.708-3.242,14.727c-4.725,7.851-14.566,33.076-17.624,41.379c-1.996,5.408-31.351,68.276-39.405,81.708
			c-1.09,1.799-2.023,3.29-2.894,4.663c0.862,5.564,1.659,11.211,2.364,16.941c0.297,1.985,0.573,4.164,0.834,6.809h-0.024
			c5.467,48.412,5.69,101.378,0.08,149.094c-0.629,5.338-1.819,10.252-3.422,14.82c-0.686,1.955-1.455,3.843-2.318,5.643
			c9.872,17.765,30.077,26.773,60.401,26.773c16.099,0,30.642-2.653,38.552-4.408c0.437-0.093,0.946-0.2,1.351-0.293
			c0.361-5.438,0.545-12.482,0.545-20.99c-1.41-10.78-3.475-23.123-5.121-30.297c-1.804-7.851-2.869-14.366-4.216-22.617
			c-1.082-6.625-2.341-14.319-4.308-24.687c-4.48-23.587-6.496-34.592-7.378-48.441c-0.377-5.967-1.086-11.938-1.747-17.437
			c-0.891-7.382-1.647-13.768-1.479-18.628c0.253-6.949-0.152-14.501-0.444-20.019l-0.141-2.573
			c-0.196-4.089,1.567-9.534,3.606-15.835c1.278-3.941,2.598-8.015,3.503-11.986l0.857-3.879
			c2.269-10.434,3.911-17.969,8.957-17.969c2.925,0,4.528,2.779,5.057,3.687c5.282,9.153,8.725,70.845,6.256,93.635
			c-2.597,23.973,1.419,91.117,1.764,94.912c0.184,2.023,1.126,22.754,1.114,42.135c1.062,8.087,2.208,19.127,1.494,23.411
			l-0.332,1.972l-2.124,0.621c-0.221,2.115-0.489,3.947-0.802,5.441c-0.569,2.746-1.234,5.214-1.835,7.438
			c-2.773,10.243-3.519,12.992,10.863,17.665c4.208,1.362,8.524,2.051,12.836,2.051c9.55,0,16.848-3.401,19.717-4.98
			c5.835-292.328-20.33-385.797-23.335-395.505C358.138,44.104,354.916,43.468,350.047,42.509z"/>
		<path d="M125.82,430.929c-0.607-2.225-1.274-4.701-1.841-7.43c-0.315-1.503-0.571-3.351-0.8-5.459l-0.196-0.076l-1.914-0.536
			l-0.333-1.972c-0.713-4.292,0.433-15.333,1.525-23.828c-0.03-19.063,0.901-39.734,1.082-41.722
			c0.349-3.808,4.336-71.172,1.767-94.908c-2.473-22.784,0.982-84.48,6.268-93.633c0.525-0.912,2.126-3.683,5.051-3.683
			c5.056,0,6.688,7.544,8.958,17.993l0.846,3.855c0.914,3.972,2.232,8.039,3.505,11.979c2.04,6.306,3.807,11.746,3.603,15.835
			l-0.134,2.527c-0.299,5.526-0.697,13.094-0.455,20.059c0.172,4.859-0.587,11.239-1.477,18.629
			c-0.659,5.506-1.373,11.469-1.748,17.433c-0.89,13.894-2.905,24.886-7.375,48.453c-1.961,10.348-3.224,18.062-4.308,24.678
			c-1.348,8.247-2.418,14.764-4.218,22.614c-1.639,7.177-3.709,19.512-5.14,30.696c0.024,8.159,0.211,15.156,0.571,20.595
			c0.966,0.22,2.074,0.457,3.29,0.717c8.237,1.728,21.794,3.972,36.614,3.979h0.008c30.32,0,50.518-9,60.396-26.77
			c0.673-1.21,1.122-2.608,1.701-3.895c0.21-0.478,0.403-0.967,0.599-1.447c0.398-0.974,0.861-1.896,1.206-2.909
			c1.364-4.008,2.457-8.247,3.01-12.94c5.824-49.615,5.304-104.935-0.912-154.725c-0.473-3.047-1.006-5.355-1.703-7.295
			c-0.349-0.95-0.739-1.835-1.172-2.705c-0.691-1.376-1.515-2.773-2.503-4.336c-0.008-0.008-0.008-0.016-0.016-0.024
			c-0.315-0.501-0.621-0.98-0.974-1.537c-0.487-0.763-1.02-1.601-1.579-2.479c-0.697-1.108-1.441-2.312-2.258-3.677
			c-8.087-13.463-37.423-76.303-39.409-81.697c-3.056-8.299-12.906-33.522-17.617-41.371c-4.218-7.027-5.424-11.842-3.61-14.321
			l8.171-7.828l-6.494-2.481l-0.539-1.114c-3.274-6.721-1.813-13.471,0.621-18.715c-4.147,1.453-7.962,2.338-10.553,2.929
			l-2.008,0.471c-5.625,1.402-20.546,5.133-27.699,10.077c-3.312,2.262-6.819,2.951-9.92,3.573
			c-4.875,0.966-8.095,1.603-9.971,7.648c-3.007,9.71-29.174,103.185-23.339,395.502c2.875,1.579,10.157,4.985,19.72,4.985
			c4.31,0,8.634-0.688,12.842-2.056C129.334,443.921,128.587,441.167,125.82,430.929z M219.072,226.992
			c1.439,0,2.729,0.449,3.917,1.078c1.162,0.609,2.106,1.491,2.863,2.549c1.006,1.398,1.729,3.023,1.729,4.875
			c0,2.452-1.062,4.616-2.717,6.163c-0.916,0.862-2.04,1.443-3.274,1.828c-0.81,0.26-1.625,0.513-2.519,0.513
			c-4.694,0-8.501-3.812-8.501-8.504C210.562,230.799,214.37,226.992,219.072,226.992z M219.072,274.094
			c0.281,0,0.525,0.132,0.81,0.164c1.112,0.112,2.15,0.413,3.102,0.918c1.276,0.673,2.298,1.671,3.085,2.869
			c0.87,1.331,1.505,2.841,1.505,4.561c0,1.863-0.723,3.486-1.735,4.889c-0.839,1.158-1.867,2.141-3.17,2.754
			c-0.959,0.46-2.005,0.705-3.118,0.773c-0.164,0.008-0.307,0.092-0.479,0.092c-4.694,0-8.501-3.808-8.501-8.5
			C210.562,277.905,214.37,274.094,219.072,274.094z M219.072,323.81c0.353,0,0.659,0.156,0.998,0.201
			c1.146,0.147,2.188,0.484,3.146,1.033c1.407,0.806,2.553,1.947,3.304,3.391c0.621,1.182,1.054,2.46,1.054,3.887
			c0,1.15-0.244,2.232-0.651,3.227c-0.605,1.482-1.691,2.625-2.959,3.534c-0.912,0.669-1.916,1.114-3.047,1.375
			c-0.613,0.144-1.192,0.372-1.852,0.372c-4.695,0-8.502-3.799-8.502-8.5C210.562,327.629,214.37,323.81,219.072,323.81z"/>
		<path d="M187.891,8.133c-2.631,5.26-6.645,9.101-11.028,11.986c-0.457,0.487-9.94,10.772-6.424,20.193l13.377,5.109
			l-14.168,13.485c0.146,0.944,0.792,3.274,3.476,7.745c5.322,8.87,15.822,36.151,18.128,42.429
			c1.797,4.883,27.972,60.887,37.367,77.956c0.567,1.026,1.092,1.962,1.529,2.683c0.323,0.541,0.605,0.982,0.912,1.477
			c0.205,0.336,0.419,0.681,0.613,1.004c-0.126-0.752-0.269-1.485-0.401-2.229c-0.519-3.001-1.028-5.999-1.585-8.935
			c-1.587-8.315-3.346-16.368-5.278-24.093l-1.13-4.5C202.971,71.422,191.531,20.105,193.207,0
			C191.335,2.292,189.438,5.039,187.891,8.133z"/>
	</g>
</g>
<g>
</g>
<g>
</g>
<g>
</g>
<g>
</g>
<g>
</g>
<g>
</g>
<g>
</g>
<g>
</g>
<g>
</g>
<g>
</g>
<g>
</g>
<g>
</g>
<g>
</g>
<g>
</g>
<g>
</g>
</svg>
