<?xml version="1.0" encoding="utf-8"?>
<!-- Svg Vector Icons : http://www.onlinewebfonts.com/icon -->
<!DOCTYPE svg PUBLIC "-//W3C//DTD SVG 1.1//EN" "http://www.w3.org/Graphics/SVG/1.1/DTD/svg11.dtd">
<svg version="1.1" xmlns="http://www.w3.org/2000/svg" xmlns:xlink="http://www.w3.org/1999/xlink" x="0px" y="0px" viewBox="0 0 1000 1000" enable-background="new 0 0 1000 1000" xml:space="preserve">
<g><g><g><path d="M987.5,514.1C870.8,9.2,444.4,96.2,444.4,96.2S401,81.3,472,47.4c-129.4-32.9-210,84.9-210,84.9s-27.6,1-27.6-48.8c-32.9,4.2-2.1,91.2-2.1,91.2s-91.2,2.1-112.5-12.7c-10.6,33.9,73.4,27.1,97.6,36.1c-426.4,29.7-63.6,613.1-61.5,566.4C92.3,490.8,245,391.1,245,391.1s129.4,130.5,233.4,118.8c-110.3-42.4-88.8-63.7-88.8-63.7s176.8,14.8,347.6-65.8c72.1,3.2,131.5,158.6,148.5,352.2c80.1-57.8,59.4-218.5,59.4-218.5S1002.4,560.8,987.5,514.1z"/><path d="M682.8,871.1c-27.4-22.7-91.1-95.9-171.2-17.1c-77.7-70.8-139.3-0.3-166.1,21.9c-100.2,46.1-105-10.3-107.4-25.5c-75.6,136.1,165.5,105,200.5,105c33.3,0,76.9-19.9,81.1-21.8c16.1,6.6,45.7,17.1,69.9,17.1c34.9,0,276,31,200.5-105C787.9,860.7,783,917.2,682.8,871.1z"/></g></g><g></g><g></g><g></g><g></g><g></g><g></g><g></g><g></g><g></g><g></g><g></g><g></g><g></g><g></g><g></g></g>
</svg>