<svg height="512pt" viewBox="0 0 512.001 512" width="512pt" xmlns="http://www.w3.org/2000/svg"><path d="m225.019531 290.542969c.511719.625 1.105469 1.179687 1.757813 1.667969 25.375 23.679687 59.402344 38.191406 96.765625 38.191406 36.882812 0 70.523437-14.140625 95.792969-37.285156 1.394531-.800782 2.570312-1.925782 3.433593-3.261719 26.347657-25.785157 42.730469-61.71875 42.730469-101.40625 0-78.277344-63.683594-141.957031-141.957031-141.957031-78.277344 0-141.957031 63.679687-141.957031 141.957031 0 40.042969 16.671874 76.261719 43.433593 102.09375zm18.40625-10.222657c5.101563-26.253906 28.070313-45.484374 55.339844-45.484374h14.777344v37.785156c0 5.519531 4.476562 10 10 10 5.519531 0 10-4.480469 10-10v-37.785156h14.773437c27.304688 0 50.246094 19.21875 55.34375 45.480468-21.445312 18.726563-49.480468 30.089844-80.117187 30.089844-30.640625-.003906-58.671875-11.363281-80.117188-30.085938zm49.9375-103.078124h9.644531c13.164063 0 25.699219-4.742188 35.472657-13.230469l15.238281 8.953125v11.691406c0 16.640625-13.539062 30.179688-30.175781 30.179688-16.640625 0-30.179688-13.539063-30.179688-30.179688zm60.355469-27.472657-11.8125-6.9375c-4.210938-2.476562-9.589844-1.546875-12.730469 2.199219-6.503906 7.761719-16.039062 12.210938-26.167969 12.210938h-9.644531v-9.566407c0-16.640625 13.539063-30.175781 30.179688-30.175781 16.636719 0 30.175781 13.535156 30.175781 30.175781zm-30.175781-83.277343c67.246093 0 121.957031 54.707031 121.957031 121.957031 0 28.300781-9.695312 54.382812-25.933594 75.097656-9.429687-24.464844-30.917968-42.519531-57.003906-47.394531 6.972656-8.621094 11.15625-19.578125 11.15625-31.496094v-36.980469c0-27.667969-22.507812-50.179687-50.175781-50.179687s-50.179688 22.511718-50.179688 50.179687v36.980469c0 11.921875 4.1875 22.878906 11.15625 31.496094-26.058593 4.886718-47.5625 22.949218-56.996093 47.402344-16.242188-20.71875-25.9375-46.800782-25.9375-75.105469 0-67.25 54.707031-121.957031 121.957031-121.957031zm0 0"/><path d="m322.058594 379.871094c50.734375 0 98.433594-19.757813 134.308594-55.632813s55.632812-83.574219 55.632812-134.308593c0-50.734376-19.757812-98.433594-55.632812-134.308594-30.632813-30.628906-71.179688-50.007813-114.171876-54.566406-42.367187-4.492188-85.425781 5.46875-121.265624 28.050781-4.671876 2.941406-6.074219 9.117187-3.132813 13.789062 2.945313 4.671875 9.121094 6.078125 13.792969 3.132813 67.511718-42.535156 154.125-32.773438 210.632812 23.738281 32.097656 32.097656 49.777344 74.773437 49.777344 120.164063 0 45.394531-17.679688 88.070312-49.777344 120.167968-32.09375 32.097656-74.769531 49.773438-120.164062 49.773438-45.394532 0-88.070313-17.675782-120.164063-49.773438-56.511719-56.507812-66.273437-143.125-23.742187-210.632812 2.945312-4.675782 1.542968-10.847656-3.128906-13.792969-4.675782-2.945313-10.847657-1.542969-13.792969 3.128906-22.578125 35.839844-32.539063 78.90625-28.046875 121.265625 2.734375 25.8125 10.820312 50.738282 23.46875 73.167969l-40.742188 40.742187-100.976562 100.984376c-9.628906 9.628906-14.933594 22.429687-14.933594 36.046874 0 13.617188 5.304688 26.421876 14.933594 36.050782s22.429687 14.929687 36.050781 14.929687c13.617187 0 26.417969-5.300781 36.046875-14.929687l100.980469-100.980469s0-.003906.003906-.003906l40.652344-40.652344c28.175781 15.957031 60.128906 24.449219 93.390625 24.449219zm-249.167969 103.042968c-5.855469 5.851563-13.632813 9.074219-21.910156 9.074219-8.273438 0-16.054688-3.222656-21.90625-9.074219-12.078125-12.078124-12.078125-31.734374 0-43.8125l93.910156-93.910156 43.8125 43.816406zm108.050781-108.050781-43.816406-43.8125 30.535156-30.535156c6.015625 8.410156 12.722656 16.355469 20.089844 23.722656 7.414062 7.414063 15.339844 14.125 23.683594 20.132813zm0 0"/><path d="m194.824219 72.695312c2.558593 0 5.117187-.972656 7.070312-2.925781 3.90625-3.90625 3.90625-10.238281 0-14.144531v-.003906c-3.90625-3.902344-10.238281-3.902344-14.144531 0-3.902344 3.90625-3.902344 10.242187.003906 14.144531 1.953125 1.957031 4.511719 2.929687 7.070313 2.929687zm0 0"/></svg>