<?xml version="1.0" encoding="iso-8859-1"?>
<!-- Generator: Adobe Illustrator 16.0.0, SVG Export Plug-In . SVG Version: 6.00 Build 0)  -->
<!DOCTYPE svg PUBLIC "-//W3C//DTD SVG 1.1//EN" "http://www.w3.org/Graphics/SVG/1.1/DTD/svg11.dtd">
<svg version="1.1" id="Capa_1" xmlns="http://www.w3.org/2000/svg" xmlns:xlink="http://www.w3.org/1999/xlink" x="0px" y="0px"
	 width="63.615px" height="63.615px" viewBox="0 0 63.615 63.615" style="enable-background:new 0 0 63.615 63.615;"
	 xml:space="preserve">
<g>
	<g>
		<path d="M5.162,27.522c1.177,1.126,2.74,2.187,4.474,2.187c0.355,0,0.713-0.046,1.064-0.137c1.309-0.336,2.185-0.893,2.777-1.654
			C10.827,28.245,7.556,27.898,5.162,27.522z"/>
		<path d="M62.76,33.666c-0.106,0.124-0.243,0.259-0.418,0.399c1.625,5.67-5.621,5.918-11.958,7.527
			c-2.746,0.697-6.333,0.916-10.018,0.916c-5.676,0-11.586-0.518-15.011-0.583c-0.228-0.006-0.466-0.008-0.713-0.008
			c-4.828,0-13.262,0.808-18.259,0.808c-1.104,0-2.041-0.04-2.732-0.136c-2.341-0.325-2.692-2.137-2.587-3.579
			c-0.193-0.031-0.364-0.064-0.517-0.102c-0.202-0.051-0.369-0.106-0.512-0.169c-0.094,0.965-0.026,2.13,0.564,3.111
			c0.41,0.679,1.248,1.54,2.908,1.771c0.705,0.098,1.646,0.146,2.876,0.146c2.551,0,6.003-0.207,9.341-0.41
			c3.224-0.194,6.557-0.396,8.918-0.396c0.241,0,0.472,0.002,0.694,0.006c1.295,0.024,2.94,0.116,4.845,0.219
			c3.12,0.17,6.657,0.363,10.186,0.363c4.404,0,7.767-0.309,10.273-0.946c1.093-0.277,2.229-0.517,3.328-0.749
			c4.09-0.862,7.953-1.678,9.232-4.369c0.581-1.223,0.548-2.668-0.085-4.377C63.044,33.26,62.945,33.45,62.76,33.666z"/>
		<path d="M0.707,37.853c0.139,0.043,0.309,0.081,0.509,0.116c1.742,0.301,5.951,0.301,15.282,0.301
			c13.858,0,29.39-0.926,38.339-2.7c-0.005-0.011-0.015-0.016-0.019-0.028c-0.422-0.949-0.944-1.856-1.566-2.678
			c-0.128-0.168-0.268-0.327-0.405-0.49c-0.14-0.164-0.279-0.33-0.43-0.486c-0.945-0.984-2.074-1.78-3.407-2.265
			c-0.026-0.009-0.039-0.027-0.062-0.039c-1.16,0.099-2.265,0.178-3.253,0.178c-1.373,0-2.522-0.152-3.283-0.612
			c-0.795-0.48-1.991-1.027-3.368-1.586c-1.127,0.679-2.219,1.413-3.273,2.2c-0.688,0.513-1.349-0.642-0.672-1.148
			c0.779-0.582,1.578-1.133,2.391-1.661c-0.482-0.184-0.973-0.365-1.468-0.545c-1.201,0.748-2.346,1.57-3.439,2.475
			c-0.654,0.542-1.6-0.393-0.939-0.94c0.898-0.744,1.822-1.448,2.783-2.101c-0.52-0.181-1.033-0.356-1.532-0.524
			c-1.367,0.828-2.737,1.65-3.966,2.679c-0.652,0.546-1.598-0.388-0.939-0.939c1.025-0.858,2.136-1.583,3.266-2.284
			c-0.435-0.141-0.846-0.274-1.229-0.397c-1.674,0.65-3.152,1.657-4.53,2.846c-0.646,0.556-1.59-0.379-0.94-0.939
			c1.119-0.963,2.3-1.825,3.581-2.501c-0.497-0.154-0.785-0.241-0.785-0.241s-6.807-3.695-10.004-3.695
			c-0.981,0-1.623,0.348-1.623,1.258c0,2.272,0.068,4.691-0.872,6.566c-0.663,1.325-1.827,2.38-3.89,2.911
			c-0.451,0.117-0.893,0.169-1.324,0.169c-2.641,0-4.858-1.979-6.19-3.526c-0.853-0.988-1.345-1.801-1.345-1.801
			c-1.55,1.772-0.887,4.43-0.887,8.638c0,1.922-1.496,2.965-0.984,3.531C0.321,37.694,0.473,37.782,0.707,37.853z"/>
		<path d="M61.716,31.117c-1.485-1.511-3.921-1.932-6.61-1.932c-1.193,0-2.436,0.081-3.662,0.182
			c0.997,0.643,1.863,1.457,2.607,2.387c0.129,0.161,0.255,0.323,0.377,0.49c0.117,0.163,0.231,0.327,0.342,0.494
			c0.499,0.755,0.938,1.553,1.306,2.378c0.028,0.065,0.031,0.125,0.04,0.184c2.979-0.669,5.049-1.445,5.828-2.329
			c0.163-0.186,0.265-0.374,0.311-0.567c0.084-0.354-0.015-0.725-0.353-1.109C61.845,31.229,61.776,31.178,61.716,31.117z"/>
	</g>
</g>
<g>
</g>
<g>
</g>
<g>
</g>
<g>
</g>
<g>
</g>
<g>
</g>
<g>
</g>
<g>
</g>
<g>
</g>
<g>
</g>
<g>
</g>
<g>
</g>
<g>
</g>
<g>
</g>
<g>
</g>
</svg>
