<?xml version="1.0" encoding="iso-8859-1"?>
<!-- Generator: Adobe Illustrator 16.0.0, SVG Export Plug-In . SVG Version: 6.00 Build 0)  -->
<!DOCTYPE svg PUBLIC "-//W3C//DTD SVG 1.1//EN" "http://www.w3.org/Graphics/SVG/1.1/DTD/svg11.dtd">
<svg version="1.1" id="Capa_1" xmlns="http://www.w3.org/2000/svg" xmlns:xlink="http://www.w3.org/1999/xlink" x="0px" y="0px"
	 width="95.844px" height="95.844px" viewBox="0 0 95.844 95.844" style="enable-background:new 0 0 95.844 95.844;"
	 xml:space="preserve">
<g>
	<g>
		<polygon points="47.918,39.699 52.742,12.66 48.872,7.32 50.771,3.511 45.066,3.511 46.969,7.32 43.093,12.66 		"/>
		<path d="M75.541,86.669h7.621l-1.902-32.388L77.443,11.43L59.35,3.812l-1.905-3.809l-1.903,7.618l-7.623,43.807L40.301,7.618
			L38.393,0L36.49,3.809l-18.094,7.617l-3.811,42.855l-1.902,32.388h7.619l6.952-42.032l2.568,9.639l-7.621,32.045l21.905,9.523
			l3.809-18.743l3.807,18.743l21.909-9.523l-7.625-32.045l2.57-9.639L75.541,86.669z M67.999,27.259l-7.741,1.073l5.119-6.312
			l2.622,2.026V27.259z"/>
	</g>
</g>
<g>
</g>
<g>
</g>
<g>
</g>
<g>
</g>
<g>
</g>
<g>
</g>
<g>
</g>
<g>
</g>
<g>
</g>
<g>
</g>
<g>
</g>
<g>
</g>
<g>
</g>
<g>
</g>
<g>
</g>
</svg>
